<svg width="52" height="63" viewBox="0 0 52 63" fill="none" xmlns="http://www.w3.org/2000/svg">
<g clip-path="url(#clip0_38_2768)">
<path d="M25.9142 57.1406C28.2338 57.1406 30.1317 54.8281 30.1317 52.0018H21.6968C21.6968 54.8281 23.5946 57.1406 25.9142 57.1406ZM38.5667 41.7243V28.8773C38.5667 20.9893 35.1294 14.386 29.0773 12.6389V10.8917C29.0773 8.75908 27.6645 7.0376 25.9142 7.0376C24.164 7.0376 22.7511 8.75908 22.7511 10.8917V12.6389C16.7201 14.386 13.2618 20.9637 13.2618 28.8773V41.7243L9.04431 46.863V49.4324H42.7841V46.863L38.5667 41.7243ZM34.3492 44.2936H17.4793V28.8773C17.4793 22.5053 20.6635 17.3151 25.9142 17.3151C31.165 17.3151 34.3492 22.5053 34.3492 28.8773V44.2936Z" fill="white"/>
</g>
<defs>
<clipPath id="clip0_38_2768">
<rect width="50.6098" height="61.6652" fill="white" transform="translate(0.609375 0.614258)"/>
</clipPath>
</defs>
</svg>
