<svg xmlns="http://www.w3.org/2000/svg" version="1.1" xmlns:xlink="http://www.w3.org/1999/xlink" xmlns:svgjs="http://svgjs.dev/svgjs" width="2000" height="282" viewBox="0 0 2000 282"><g transform="matrix(1,0,0,1,-1.2121212121212466,-0.0494428244194296)"><svg viewBox="0 0 396 56" data-background-color="#000000" preserveAspectRatio="xMidYMid meet" height="282" width="2000" xmlns="http://www.w3.org/2000/svg" xmlns:xlink="http://www.w3.org/1999/xlink"><g id="tight-bounds" transform="matrix(1,0,0,1,0.2400000000000091,0.009818433218043765)"><svg viewBox="0 0 395.52 55.98036313356389" height="55.98036313356389" width="395.52"><rect width="395.52" height="55.98036313356389" fill="url(#671d2a31-270f-4bfd-a444-59c6f81bae37)" mask="url(#123e36b2-8413-463f-a166-0b02971f6b11)" data-fill-palette-color="tertiary"></rect><g><svg viewBox="0 0 520.11784422515 73.61545760510293" height="55.98036313356389" width="395.52"><g transform="matrix(1,0,0,1,124.59784422515,10.17406107277472)"><svg viewBox="0 0 395.5199999999999 53.26733545955349" height="53.26733545955349" width="395.5199999999999"><g id="textblocktransform"><svg viewBox="0 0 395.5199999999999 53.26733545955349" height="53.26733545955349" width="395.5199999999999" id="textblock"><g><svg viewBox="0 0 395.5199999999999 53.26733545955349" height="53.26733545955349" width="395.5199999999999"><g transform="matrix(1,0,0,1,0,0)"><svg width="395.5199999999999" viewBox="1.8 -35.2 341.88072188418573 46.45" height="53.26733545955349" data-palette-color="#9d4edd"><g class="wordmark-text-0" data-fill-palette-color="primary" id="text-0"><path d="M1.8-30.65L1.8-30.65Q1.8-31.75 3.05-31.75L3.05-31.75 16.2-31.75Q19.85-31.75 22.73-30.63 25.6-29.5 27.63-27.45 29.65-25.4 30.73-22.48 31.8-19.55 31.8-15.95L31.8-15.95Q31.8-12.2 30.58-9.22 29.35-6.25 27.18-4.2 25-2.15 21.93-1.07 18.85 0 15.2 0L15.2 0 3.05 0Q1.8 0 1.8-1.1L1.8-1.1Q1.8-2.2 3-2.3L3-2.3 4.8-2.5Q5.95-2.65 6-3.75L6-3.75Q6-5.05 6.03-6.28 6.05-7.5 6.05-8.8L6.05-8.8 6.05-23Q6.05-24.25 6.03-25.48 6-26.7 6-27.95L6-27.95Q5.9-29.1 4.8-29.25L4.8-29.25 3-29.45Q1.8-29.6 1.8-30.65ZM11.95-2.45L11.95-2.45 14.95-2.45Q17.85-2.45 19.85-3.6 21.85-4.75 23.13-6.63 24.4-8.5 24.95-10.9 25.5-13.3 25.5-15.85L25.5-15.85Q25.5-22.45 22.58-25.88 19.65-29.3 14.9-29.3L14.9-29.3 11.95-29.3Q11.9-27.75 11.88-26.25 11.85-24.75 11.85-23.15L11.85-23.15 11.85-8.75Q11.85-7.15 11.88-5.6 11.9-4.05 11.95-2.45ZM44-16.55L44-3.6Q44.05-2.55 45.15-2.3L45.15-2.3 46-2.15Q47.1-1.9 47.1-0.95L47.1-0.95Q47.1 0 45.85 0L45.85 0 36.65 0Q35.4 0 35.4-0.95L35.4-0.95Q35.4-1.85 36.55-2.1L36.55-2.1 37.55-2.3Q38.65-2.55 38.7-3.6L38.7-3.6 38.7-12.45Q38.7-13.45 38.7-14.25 38.7-15.05 38.65-15.75L38.65-15.75Q38.6-16.15 38.6-16.55 38.6-16.95 38.6-17.35L38.6-17.35Q38.5-18.5 37.4-18.65L37.4-18.65 36.2-18.8Q35.05-18.95 35.05-19.85L35.05-19.85Q35.05-20.65 36.05-21.05L36.05-21.05 42.55-23.4Q42.8-23.5 43-23.55 43.2-23.6 43.4-23.6L43.4-23.6Q43.65-23.6 43.8-23.45L43.8-23.45Q44.15-23.15 44.15-22.25L44.15-22.25 44-16.55ZM41.3-28.3L41.3-28.3Q39.7-28.3 38.67-29.25 37.65-30.2 37.65-31.75L37.65-31.75Q37.65-33.3 38.67-34.25 39.7-35.2 41.3-35.2L41.3-35.2Q42.85-35.2 43.87-34.25 44.9-33.3 44.9-31.75L44.9-31.75Q44.9-30.2 43.87-29.25 42.85-28.3 41.3-28.3ZM71.75-27.6L71.75-3.65Q71.75-2.55 72.9-2.3L72.9-2.3 73.95-2.1Q75.1-1.85 75.1-0.95L75.1-0.95Q75.1-0.05 73.9 0.05L73.9 0.05 68.2 0.4Q67 0.4 66.85-0.7L66.85-0.7 66.65-2.5Q65.2-0.9 63.6-0.08 62 0.75 59.75 0.75L59.75 0.75Q57.25 0.75 55.42-0.3 53.6-1.35 52.42-3.05 51.25-4.75 50.67-6.9 50.1-9.05 50.1-11.3L50.1-11.3Q50.1-13.6 50.75-15.83 51.4-18.05 52.67-19.8 53.95-21.55 55.87-22.63 57.8-23.7 60.35-23.7L60.35-23.7Q64.1-23.7 66.7-20.8L66.7-20.8 66.7-29.1Q66.7-30.3 65.55-30.45L65.55-30.45 63.85-30.65Q62.7-30.8 62.7-31.7L62.7-31.7Q62.7-32.6 63.8-32.9L63.8-32.9 70.4-34.6Q70.65-34.7 70.82-34.7 71-34.7 71.2-34.7L71.2-34.7Q71.55-34.7 71.65-34.6L71.65-34.6Q71.9-34.4 71.9-33.4L71.9-33.4 71.75-27.6ZM66.45-4.55L66.45-4.55 66.45-18.5Q63.85-20.5 61.8-20.5L61.8-20.5Q60.05-20.5 58.87-19.63 57.7-18.75 57.02-17.4 56.35-16.05 56.07-14.45 55.8-12.85 55.8-11.45L55.8-11.45Q55.8-6.85 57.45-4.67 59.1-2.5 61.65-2.5L61.65-2.5Q64-2.5 66.45-4.55Z" fill="#9d4edd" data-fill-palette-color="primary"></path><path d="M186.64-33.4L186.49-27.6 186.49-20.5Q188.04-22.1 189.74-22.9 191.44-23.7 193.59-23.7L193.59-23.7Q196.09-23.7 197.84-22.63 199.59-21.55 200.71-19.83 201.84-18.1 202.36-15.95 202.89-13.8 202.89-11.65L202.89-11.65Q202.89-9.35 202.29-7.13 201.69-4.9 200.44-3.15 199.19-1.4 197.29-0.33 195.39 0.75 192.84 0.75L192.84 0.75Q190.94 0.75 189.39 0.08 187.84-0.6 186.44-2.15L186.44-2.15 186.14-2.15 185.99-0.6Q185.84 0.55 184.59 0.55L184.59 0.55 179.19 0.1Q177.99 0 177.99-0.95L177.99-0.95Q177.99-1.85 179.14-2.1L179.14-2.1 180.14-2.3Q181.24-2.55 181.29-3.6L181.29-3.6 181.29-29.15Q181.29-30.3 180.14-30.45L180.14-30.45 178.64-30.65Q177.49-30.8 177.49-31.7L177.49-31.7Q177.49-32.6 178.54-32.9L178.54-32.9 185.09-34.6Q185.34-34.7 185.51-34.7 185.69-34.7 185.89-34.7L185.89-34.7Q186.24-34.7 186.34-34.6L186.34-34.6Q186.64-34.4 186.64-33.4L186.64-33.4ZM186.64-18.35L186.64-18.35 186.64-4.5Q189.09-2.5 191.44-2.5L191.44-2.5Q193.14-2.5 194.26-3.38 195.39-4.25 196.04-5.58 196.69-6.9 196.96-8.45 197.24-10 197.24-11.35L197.24-11.35Q197.24-15.95 195.74-18.23 194.24-20.5 191.69-20.5L191.69-20.5Q189.49-20.5 186.64-18.35ZM228.49-13.15L228.49-13.15Q228.29-12.05 227.09-12.05L227.09-12.05 212.59-12.05Q212.69-7.5 214.79-5.2 216.89-2.9 220.24-2.9L220.24-2.9Q222.19-2.9 223.56-3.63 224.94-4.35 226.09-5.65L226.09-5.65Q226.64-6.25 227.14-6.25L227.14-6.25Q227.39-6.25 227.59-6.1L227.59-6.1Q228.34-5.6 227.79-4.6L227.79-4.6Q226.49-2.05 224.04-0.7 221.59 0.65 218.29 0.65L218.29 0.65Q215.49 0.65 213.31-0.3 211.14-1.25 209.66-2.93 208.19-4.6 207.44-6.9 206.69-9.2 206.69-11.9L206.69-11.9Q206.69-14.5 207.54-16.85 208.39-19.2 209.96-20.98 211.54-22.75 213.76-23.78 215.99-24.8 218.69-24.8L218.69-24.8Q220.94-24.8 222.76-24.05 224.59-23.3 225.89-21.98 227.19-20.65 227.89-18.8 228.59-16.95 228.59-14.7L228.59-14.7Q228.59-14.3 228.59-13.93 228.59-13.55 228.49-13.15ZM212.69-14.35L212.69-14.35 220.19-14.35Q221.99-14.35 222.61-15.1 223.24-15.85 223.24-17.2L223.24-17.2Q223.24-19.45 221.96-20.95 220.69-22.45 218.79-22.45L218.79-22.45Q217.24-22.45 216.11-21.68 214.99-20.9 214.26-19.7 213.54-18.5 213.16-17.07 212.79-15.65 212.69-14.35ZM254.43-3.4L254.43-3.4Q254.53-3.5 255.08-3L255.08-3Q255.68-2.4 255.03-1.5L255.03-1.5Q254.23-0.35 253.28 0.08 252.33 0.5 251.03 0.5L251.03 0.5Q248.98 0.5 247.81-0.38 246.63-1.25 246.18-2.7L246.18-2.7Q244.58-1.1 243.08-0.18 241.58 0.75 239.23 0.75L239.23 0.75Q236.48 0.75 234.61-0.75 232.73-2.25 232.73-5.15L232.73-5.15Q232.73-7.1 233.81-8.5 234.88-9.9 236.51-10.9 238.13-11.9 239.98-12.55 241.83-13.2 243.43-13.65L243.43-13.65 245.98-14.4 245.98-15.7Q245.98-19 245.01-20.23 244.03-21.45 241.68-21.45L241.68-21.45Q241.43-21.45 241.21-21.45 240.98-21.45 240.73-21.4L240.73-21.4Q239.73-21.35 239.48-20.2L239.48-20.2 239.03-18.15Q238.43-15.15 236.03-15.15L236.03-15.15Q235.03-15.15 234.33-15.78 233.63-16.4 233.53-17.4L233.53-17.4Q233.98-20.2 236.56-21.95 239.13-23.7 243.33-23.7L243.33-23.7Q247.48-23.7 249.38-21.7 251.28-19.7 251.28-14.65L251.28-14.65 251.28-4.6Q251.28-2.35 252.68-2.35L252.68-2.35Q253.28-2.35 253.78-2.7L253.78-2.7Q254.13-2.95 254.23-3.13 254.33-3.3 254.43-3.4ZM245.98-4.65L245.98-4.65 245.98-12.4Q244.78-12.1 243.41-11.65 242.03-11.2 240.83-10.5 239.63-9.8 238.83-8.78 238.03-7.75 238.03-6.3L238.03-6.3Q238.03-4.6 239.06-3.65 240.08-2.7 241.78-2.7L241.78-2.7Q242.78-2.7 243.66-3.1 244.53-3.5 245.98-4.65ZM269.68-3.3L269.68-3.3Q270.23-3.6 270.63-3.6L270.63-3.6Q271.03-3.6 271.33-3.25L271.33-3.25Q271.98-2.45 271.23-1.65L271.23-1.65Q270.28-0.65 268.91-0.08 267.53 0.5 265.63 0.5L265.63 0.5Q262.88 0.5 261.31-0.88 259.73-2.25 259.73-5.2L259.73-5.2Q259.73-5.85 259.73-6.38 259.73-6.9 259.78-7.4L259.78-7.4 259.78-18.8Q259.78-20.05 258.53-20.05L258.53-20.05 257.48-20.05Q256.23-20.05 256.23-21.25L256.23-21.25Q256.23-22.4 257.38-22.55L257.38-22.55 259.13-22.75Q260.18-22.9 260.38-23.95L260.38-23.95 261.28-28.45Q261.48-29.55 262.63-29.55L262.63-29.55 264.03-29.55Q265.23-29.55 265.23-28.3L265.23-28.3 265.13-24.1Q265.13-22.85 266.38-22.85L266.38-22.85 269.83-22.85Q271.08-22.85 271.08-21.6L271.08-21.6 271.08-21.3Q271.08-20.05 269.83-20.05L269.83-20.05 266.33-20.05Q265.08-20.05 265.08-18.8L265.08-18.8 265.08-6.15Q265.08-4.3 265.81-3.5 266.53-2.7 267.68-2.7L267.68-2.7Q268.08-2.7 268.61-2.83 269.13-2.95 269.68-3.3Z" fill="url(#671d2a31-270f-4bfd-a444-59c6f81bae37)" data-fill-palette-color="tertiary"></path><path d="M293.332-16.55L293.332-3.6Q293.382-2.55 294.482-2.3L294.482-2.3 295.332-2.15Q296.432-1.9 296.432-0.95L296.432-0.95Q296.432 0 295.182 0L295.182 0 285.982 0Q284.732 0 284.732-0.95L284.732-0.95Q284.732-1.85 285.882-2.1L285.882-2.1 286.882-2.3Q287.982-2.55 288.032-3.6L288.032-3.6 288.032-12.45Q288.032-13.45 288.032-14.25 288.032-15.05 287.982-15.75L287.982-15.75Q287.932-16.15 287.932-16.55 287.932-16.95 287.932-17.35L287.932-17.35Q287.832-18.5 286.732-18.65L286.732-18.65 285.532-18.8Q284.382-18.95 284.382-19.85L284.382-19.85Q284.382-20.65 285.382-21.05L285.382-21.05 291.882-23.4Q292.132-23.5 292.332-23.55 292.532-23.6 292.732-23.6L292.732-23.6Q292.982-23.6 293.132-23.45L293.132-23.45Q293.482-23.15 293.482-22.25L293.482-22.25 293.332-16.55ZM290.632-28.3L290.632-28.3Q289.032-28.3 288.002-29.25 286.982-30.2 286.982-31.75L286.982-31.75Q286.982-33.3 288.002-34.25 289.032-35.2 290.632-35.2L290.632-35.2Q292.182-35.2 293.202-34.25 294.232-33.3 294.232-31.75L294.232-31.75Q294.232-30.2 293.202-29.25 292.182-28.3 290.632-28.3ZM311.582-3.3L311.582-3.3Q312.132-3.6 312.522-3.6L312.522-3.6Q312.932-3.6 313.222-3.25L313.222-3.25Q313.882-2.45 313.132-1.65L313.132-1.65Q312.182-0.65 310.802-0.08 309.432 0.5 307.522 0.5L307.522 0.5Q304.772 0.5 303.202-0.88 301.632-2.25 301.632-5.2L301.632-5.2Q301.632-5.85 301.632-6.38 301.632-6.9 301.682-7.4L301.682-7.4 301.682-18.8Q301.682-20.05 300.432-20.05L300.432-20.05 299.382-20.05Q298.132-20.05 298.132-21.25L298.132-21.25Q298.132-22.4 299.272-22.55L299.272-22.55 301.022-22.75Q302.082-22.9 302.272-23.95L302.272-23.95 303.182-28.45Q303.382-29.55 304.522-29.55L304.522-29.55 305.932-29.55Q307.132-29.55 307.132-28.3L307.132-28.3 307.022-24.1Q307.022-22.85 308.272-22.85L308.272-22.85 311.722-22.85Q312.972-22.85 312.972-21.6L312.972-21.6 312.972-21.3Q312.972-20.05 311.722-20.05L311.722-20.05 308.222-20.05Q306.972-20.05 306.972-18.8L306.972-18.8 306.972-6.15Q306.972-4.3 307.702-3.5 308.432-2.7 309.582-2.7L309.582-2.7Q309.972-2.7 310.502-2.83 311.022-2.95 311.582-3.3Z" fill="#9d4edd" data-fill-palette-color="primary"></path></g></svg></g></svg></g></svg></g></svg></g><g><svg viewBox="0 0 112.02270473920045 73.61545760510293" height="73.61545760510293" width="112.02270473920045"><g><svg xmlns="http://www.w3.org/2000/svg" xmlns:xlink="http://www.w3.org/1999/xlink" version="1.1" viewBox="30.233 63.74485853455742 195.561 128.51245234818714" x="0" y="0" height="73.61545760510293" width="112.02270473920045" class="icon-icon-0" data-fill-palette-color="accent" id="icon-0"><path d="M200.755 110.874A7.168 7.168 0 1 1 186.419 110.874 7.168 7.168 0 1 1 200.755 110.874" fill="#9d4edd" data-fill-palette-color="accent"></path><path d="M172.621 110.874A7.168 7.168 0 1 1 158.285 110.874 7.168 7.168 0 1 1 172.621 110.874" fill="#9d4edd" data-fill-palette-color="accent"></path><path d="M186.982 123.879A7.168 7.168 0 1 1 172.646 123.879 7.168 7.168 0 1 1 186.982 123.879" fill="#9d4edd" data-fill-palette-color="accent"></path><path d="M186.982 97.689A7.168 7.168 0 1 1 172.646 97.689 7.168 7.168 0 1 1 186.982 97.689" fill="#9d4edd" data-fill-palette-color="accent"></path><path d="M224.102 124.903C222.847 109.85 221.721 104.295 220.928 98.356 219.571 88.372 215.833 79.745 209.741 73.524 203.674 67.278 195.226 63.719 185.677 63.745 175.59 63.745 166.477 68.046 160.052 74.83H95.949C89.524 68.021 80.41 63.745 70.323 63.745 60.774 63.719 52.326 67.278 46.259 73.524 40.166 79.745 36.428 88.372 35.072 98.356 34.253 104.295 33.126 109.851 31.897 124.903 31.052 135.092 30.233 144.692 30.233 153.396 30.233 158.235 30.489 162.765 31.18 167.015 32.204 173.338 34.226 179.124 38.195 183.706 40.166 185.985 42.598 187.879 45.44 189.287S51.481 191.616 55.015 192.052C56.116 192.18 57.191 192.257 58.266 192.257 63.053 192.282 67.533 190.798 71.271 188.238 76.928 184.398 81.076 178.536 84.634 171.521 87.68 165.454 90.266 158.414 92.698 150.811H163.303C166.656 161.384 170.343 170.779 175.156 178.126 177.844 182.222 180.967 185.703 184.731 188.238 188.469 190.773 192.949 192.257 197.736 192.257 198.811 192.257 199.886 192.18 200.987 192.052 205.697 191.463 209.844 190.029 213.275 187.7A23.4 23.4 0 0 0 219.65 181.3C222.159 177.562 223.669 173.236 224.565 168.551S225.794 158.797 225.794 153.344C225.769 144.691 224.949 135.065 224.104 124.902zM214.707 165.351C213.862 170.599 212.301 174.439 210.074 176.974A13.2 13.2 0 0 1 206.003 180.123C204.339 180.942 202.291 181.582 199.705 181.915 199.014 181.992 198.374 182.043 197.759 182.043 194.994 182.018 192.741 181.3 190.463 179.764 187.058 177.511 183.628 173.108 180.53 166.938 177.433 160.794 174.617 152.961 171.98 144.205L170.879 140.57H85.145L84.044 144.205C80.511 155.878 76.671 165.888 72.293 172.493 70.117 175.796 67.839 178.227 65.56 179.763 63.256 181.274 61.029 182.016 58.264 182.042 57.65 182.042 56.984 181.991 56.318 181.914 52.862 181.479 50.379 180.506 48.459 179.226 47.025 178.253 45.873 177.076 44.875 175.591 43.39 173.364 42.238 170.394 41.522 166.631S40.472 158.388 40.498 153.37C40.498 145.332 41.292 135.911 42.137 125.722 43.366 110.899 44.39 106.087 45.26 99.712 46.387 91.392 49.407 84.941 53.631 80.64 57.855 76.365 63.257 73.984 70.373 73.959 78.207 73.959 85.17 77.543 89.778 83.175L91.314 85.044H164.76L166.296 83.175C170.904 77.543 177.867 73.959 185.701 73.959 192.818 73.984 198.219 76.365 202.444 80.64 206.642 84.941 209.663 91.392 210.815 99.712 211.685 106.086 212.709 110.899 213.938 125.722 214.783 135.911 215.576 145.306 215.576 153.37 215.525 157.85 215.295 161.869 214.706 165.351z" fill="#9d4edd" data-fill-palette-color="accent"></path><path d="M59.673 95.667A20.24 20.24 0 0 0 54.834 108.826C54.834 114.176 56.908 119.015 60.287 122.65L73.471 109.466z" fill="#9d4edd" data-fill-palette-color="accent"></path><path d="M62.694 124.851C66.15 127.539 70.451 129.152 75.161 129.152 80.178 129.152 84.761 127.335 88.32 124.314L75.776 111.77 62.695 124.852z" fill="#9d4edd" data-fill-palette-color="accent"></path><path d="M88.986 93.927C85.351 90.548 80.512 88.474 75.162 88.474 70.145 88.474 65.562 90.291 62.003 93.312L75.776 107.111z" fill="#9d4edd" data-fill-palette-color="accent"></path><path d="M78.106 109.44L90.65 121.984A20.24 20.24 0 0 0 95.488 108.825C95.488 104.115 93.875 99.814 91.187 96.358z" fill="#9d4edd" data-fill-palette-color="accent"></path></svg></g></svg></g></svg></g><defs></defs><mask id="20f2284e-3091-4888-bcf3-4536b764721b"><g id="SvgjsG6543"><svg viewBox="0 0 395.52 55.98036313356389" height="55.98036313356389" width="395.52"><g><svg viewBox="0 0 520.11784422515 73.61545760510293" height="55.98036313356389" width="395.52"><g transform="matrix(1,0,0,1,124.59784422515,10.17406107277472)"><svg viewBox="0 0 395.5199999999999 53.26733545955349" height="53.26733545955349" width="395.5199999999999"><g id="SvgjsG6542"><svg viewBox="0 0 395.5199999999999 53.26733545955349" height="53.26733545955349" width="395.5199999999999" id="SvgjsSvg6541"><g><svg viewBox="0 0 395.5199999999999 53.26733545955349" height="53.26733545955349" width="395.5199999999999"><g transform="matrix(1,0,0,1,0,0)"><svg width="395.5199999999999" viewBox="1.8 -35.2 341.88072188418573 46.45" height="53.26733545955349" data-palette-color="#9d4edd"><g class="wordmark-text-0" data-fill-palette-color="primary" id="SvgjsG6540"><path d="M1.8-30.65L1.8-30.65Q1.8-31.75 3.05-31.75L3.05-31.75 16.2-31.75Q19.85-31.75 22.73-30.63 25.6-29.5 27.63-27.45 29.65-25.4 30.73-22.48 31.8-19.55 31.8-15.95L31.8-15.95Q31.8-12.2 30.58-9.22 29.35-6.25 27.18-4.2 25-2.15 21.93-1.07 18.85 0 15.2 0L15.2 0 3.05 0Q1.8 0 1.8-1.1L1.8-1.1Q1.8-2.2 3-2.3L3-2.3 4.8-2.5Q5.95-2.65 6-3.75L6-3.75Q6-5.05 6.03-6.28 6.05-7.5 6.05-8.8L6.05-8.8 6.05-23Q6.05-24.25 6.03-25.48 6-26.7 6-27.95L6-27.95Q5.9-29.1 4.8-29.25L4.8-29.25 3-29.45Q1.8-29.6 1.8-30.65ZM11.95-2.45L11.95-2.45 14.95-2.45Q17.85-2.45 19.85-3.6 21.85-4.75 23.13-6.63 24.4-8.5 24.95-10.9 25.5-13.3 25.5-15.85L25.5-15.85Q25.5-22.45 22.58-25.88 19.65-29.3 14.9-29.3L14.9-29.3 11.95-29.3Q11.9-27.75 11.88-26.25 11.85-24.75 11.85-23.15L11.85-23.15 11.85-8.75Q11.85-7.15 11.88-5.6 11.9-4.05 11.95-2.45ZM44-16.55L44-3.6Q44.05-2.55 45.15-2.3L45.15-2.3 46-2.15Q47.1-1.9 47.1-0.95L47.1-0.95Q47.1 0 45.85 0L45.85 0 36.65 0Q35.4 0 35.4-0.95L35.4-0.95Q35.4-1.85 36.55-2.1L36.55-2.1 37.55-2.3Q38.65-2.55 38.7-3.6L38.7-3.6 38.7-12.45Q38.7-13.45 38.7-14.25 38.7-15.05 38.65-15.75L38.65-15.75Q38.6-16.15 38.6-16.55 38.6-16.95 38.6-17.35L38.6-17.35Q38.5-18.5 37.4-18.65L37.4-18.65 36.2-18.8Q35.05-18.95 35.05-19.85L35.05-19.85Q35.05-20.65 36.05-21.05L36.05-21.05 42.55-23.4Q42.8-23.5 43-23.55 43.2-23.6 43.4-23.6L43.4-23.6Q43.65-23.6 43.8-23.45L43.8-23.45Q44.15-23.15 44.15-22.25L44.15-22.25 44-16.55ZM41.3-28.3L41.3-28.3Q39.7-28.3 38.67-29.25 37.65-30.2 37.65-31.75L37.65-31.75Q37.65-33.3 38.67-34.25 39.7-35.2 41.3-35.2L41.3-35.2Q42.85-35.2 43.87-34.25 44.9-33.3 44.9-31.75L44.9-31.75Q44.9-30.2 43.87-29.25 42.85-28.3 41.3-28.3ZM71.75-27.6L71.75-3.65Q71.75-2.55 72.9-2.3L72.9-2.3 73.95-2.1Q75.1-1.85 75.1-0.95L75.1-0.95Q75.1-0.05 73.9 0.05L73.9 0.05 68.2 0.4Q67 0.4 66.85-0.7L66.85-0.7 66.65-2.5Q65.2-0.9 63.6-0.08 62 0.75 59.75 0.75L59.75 0.75Q57.25 0.75 55.42-0.3 53.6-1.35 52.42-3.05 51.25-4.75 50.67-6.9 50.1-9.05 50.1-11.3L50.1-11.3Q50.1-13.6 50.75-15.83 51.4-18.05 52.67-19.8 53.95-21.55 55.87-22.63 57.8-23.7 60.35-23.7L60.35-23.7Q64.1-23.7 66.7-20.8L66.7-20.8 66.7-29.1Q66.7-30.3 65.55-30.45L65.55-30.45 63.85-30.65Q62.7-30.8 62.7-31.7L62.7-31.7Q62.7-32.6 63.8-32.9L63.8-32.9 70.4-34.6Q70.65-34.7 70.82-34.7 71-34.7 71.2-34.7L71.2-34.7Q71.55-34.7 71.65-34.6L71.65-34.6Q71.9-34.4 71.9-33.4L71.9-33.4 71.75-27.6ZM66.45-4.55L66.45-4.55 66.45-18.5Q63.85-20.5 61.8-20.5L61.8-20.5Q60.05-20.5 58.87-19.63 57.7-18.75 57.02-17.4 56.35-16.05 56.07-14.45 55.8-12.85 55.8-11.45L55.8-11.45Q55.8-6.85 57.45-4.67 59.1-2.5 61.65-2.5L61.65-2.5Q64-2.5 66.45-4.55Z" fill="black"></path><path d="M103-22.85L109.6-22.85Q110.85-22.85 110.85-21.85L110.85-21.85Q110.85-20.85 109.7-20.6L109.7-20.6 108.95-20.45Q107.95-20.3 107.6-19.35L107.6-19.35 100.45 0.2Q99.9 1.75 99.12 3.68 98.35 5.6 97.25 7.28 96.15 8.95 94.65 10.1 93.15 11.25 91.15 11.25L91.15 11.25Q89.25 11.25 87.87 10.38 86.5 9.5 86.5 7.95L86.5 7.95Q86.85 6.8 87.7 6.33 88.55 5.85 89.65 5.85L89.65 5.85Q90.55 5.85 91.37 6.15 92.2 6.45 93.2 7.45L93.2 7.45Q93.35 7.6 93.6 7.6L93.6 7.6Q94.15 7.6 94.8 6.83 95.45 6.05 96.05 5.03 96.65 4 97.12 3 97.6 2 97.75 1.6L97.75 1.6 89.2-19.4Q88.85-20.25 87.9-20.45L87.9-20.45 87.2-20.6Q86.1-20.8 86.1-21.85L86.1-21.85Q86.1-22.85 87.35-22.85L87.35-22.85 97.2-22.85Q98.45-22.85 98.45-21.85L98.45-21.85Q98.45-20.75 97.3-20.6L97.3-20.6 96.1-20.4Q94.75-20.15 95.2-18.9L95.2-18.9 100.2-5.35 104.9-18.95Q105.35-20.2 104-20.45L104-20.45 102.9-20.6Q101.75-20.75 101.75-21.85L101.75-21.85Q101.75-22.85 103-22.85L103-22.85ZM124.65-23.7L124.65-23.7Q127.25-23.7 129.4-22.73 131.55-21.75 133.07-20.08 134.6-18.4 135.42-16.18 136.25-13.95 136.25-11.4L136.25-11.4Q136.25-8.8 135.42-6.58 134.6-4.35 133.1-2.73 131.6-1.1 129.44-0.18 127.3 0.75 124.65 0.75L124.65 0.75Q122 0.75 119.85-0.18 117.7-1.1 116.2-2.73 114.7-4.35 113.87-6.58 113.05-8.8 113.05-11.4L113.05-11.4Q113.05-13.95 113.87-16.2 114.7-18.45 116.22-20.1 117.75-21.75 119.87-22.73 122-23.7 124.65-23.7ZM124.65-21.45L124.65-21.45Q118.9-21.45 118.9-11.45L118.9-11.45Q118.9-1.55 124.65-1.55L124.65-1.55Q130.4-1.55 130.4-11.45L130.4-11.45Q130.4-21.45 124.65-21.45ZM162.14-16L162.14-3.65Q162.14-2.5 163.24-2.3L163.24-2.3 164.04-2.15Q165.14-1.9 165.14-0.95L165.14-0.95Q165.14 0 163.94 0.1L163.94 0.1 158.59 0.45 158.49 0.45Q157.39 0.45 157.24-0.7L157.24-0.7 156.94-3.6Q153.19 0.75 148.64 0.75L148.64 0.75Q147.19 0.75 145.99 0.28 144.79-0.2 143.94-1.25L143.94-1.25Q143.09-2.25 142.64-3.88 142.19-5.5 142.24-7.9L142.24-7.9 142.34-18.95Q142.34-20.05 141.19-20.3L141.19-20.3 140.49-20.45Q139.39-20.65 139.39-21.6L139.39-21.6Q139.39-22.5 140.59-22.6L140.59-22.6 146.39-23.1Q146.59-23.1 146.74-23.13 146.89-23.15 146.99-23.15L146.99-23.15Q147.34-23.15 147.54-23.05L147.54-23.05Q147.74-22.85 147.74-21.9L147.74-21.9 147.54-16 147.54-8.6Q147.54-5.45 148.42-4.2 149.29-2.95 150.89-2.95L150.89-2.95Q152.34-2.95 153.87-3.78 155.39-4.6 156.79-5.95L156.79-5.95 156.94-18.95Q156.94-20.05 155.79-20.3L155.79-20.3 155.09-20.45Q153.99-20.65 153.99-21.55L153.99-21.55Q153.99-22.45 155.19-22.55L155.19-22.55 160.89-23.1Q161.09-23.1 161.24-23.13 161.39-23.15 161.49-23.15L161.49-23.15Q161.84-23.15 162.04-23.05L162.04-23.05Q162.14-22.95 162.22-22.7 162.29-22.45 162.29-21.9L162.29-21.9 162.14-16Z" fill="white"></path><path d="M186.64-33.4L186.49-27.6 186.49-20.5Q188.04-22.1 189.74-22.9 191.44-23.7 193.59-23.7L193.59-23.7Q196.09-23.7 197.84-22.63 199.59-21.55 200.71-19.83 201.84-18.1 202.36-15.95 202.89-13.8 202.89-11.65L202.89-11.65Q202.89-9.35 202.29-7.13 201.69-4.9 200.44-3.15 199.19-1.4 197.29-0.33 195.39 0.75 192.84 0.75L192.84 0.75Q190.94 0.75 189.39 0.08 187.84-0.6 186.44-2.15L186.44-2.15 186.14-2.15 185.99-0.6Q185.84 0.55 184.59 0.55L184.59 0.55 179.19 0.1Q177.99 0 177.99-0.95L177.99-0.95Q177.99-1.85 179.14-2.1L179.14-2.1 180.14-2.3Q181.24-2.55 181.29-3.6L181.29-3.6 181.29-29.15Q181.29-30.3 180.14-30.45L180.14-30.45 178.64-30.65Q177.49-30.8 177.49-31.7L177.49-31.7Q177.49-32.6 178.54-32.9L178.54-32.9 185.09-34.6Q185.34-34.7 185.51-34.7 185.69-34.7 185.89-34.7L185.89-34.7Q186.24-34.7 186.34-34.6L186.34-34.6Q186.64-34.4 186.64-33.4L186.64-33.4ZM186.64-18.35L186.64-18.35 186.64-4.5Q189.09-2.5 191.44-2.5L191.44-2.5Q193.14-2.5 194.26-3.38 195.39-4.25 196.04-5.58 196.69-6.9 196.96-8.45 197.24-10 197.24-11.35L197.24-11.35Q197.24-15.95 195.74-18.23 194.24-20.5 191.69-20.5L191.69-20.5Q189.49-20.5 186.64-18.35ZM228.49-13.15L228.49-13.15Q228.29-12.05 227.09-12.05L227.09-12.05 212.59-12.05Q212.69-7.5 214.79-5.2 216.89-2.9 220.24-2.9L220.24-2.9Q222.19-2.9 223.56-3.63 224.94-4.35 226.09-5.65L226.09-5.65Q226.64-6.25 227.14-6.25L227.14-6.25Q227.39-6.25 227.59-6.1L227.59-6.1Q228.34-5.6 227.79-4.6L227.79-4.6Q226.49-2.05 224.04-0.7 221.59 0.65 218.29 0.65L218.29 0.65Q215.49 0.65 213.31-0.3 211.14-1.25 209.66-2.93 208.19-4.6 207.44-6.9 206.69-9.2 206.69-11.9L206.69-11.9Q206.69-14.5 207.54-16.85 208.39-19.2 209.96-20.98 211.54-22.75 213.76-23.78 215.99-24.8 218.69-24.8L218.69-24.8Q220.94-24.8 222.76-24.05 224.59-23.3 225.89-21.98 227.19-20.65 227.89-18.8 228.59-16.95 228.59-14.7L228.59-14.7Q228.59-14.3 228.59-13.93 228.59-13.55 228.49-13.15ZM212.69-14.35L212.69-14.35 220.19-14.35Q221.99-14.35 222.61-15.1 223.24-15.85 223.24-17.2L223.24-17.2Q223.24-19.45 221.96-20.95 220.69-22.45 218.79-22.45L218.79-22.45Q217.24-22.45 216.11-21.68 214.99-20.9 214.26-19.7 213.54-18.5 213.16-17.07 212.79-15.65 212.69-14.35ZM254.43-3.4L254.43-3.4Q254.53-3.5 255.08-3L255.08-3Q255.68-2.4 255.03-1.5L255.03-1.5Q254.23-0.35 253.28 0.08 252.33 0.5 251.03 0.5L251.03 0.5Q248.98 0.5 247.81-0.38 246.63-1.25 246.18-2.7L246.18-2.7Q244.58-1.1 243.08-0.18 241.58 0.75 239.23 0.75L239.23 0.75Q236.48 0.75 234.61-0.75 232.73-2.25 232.73-5.15L232.73-5.15Q232.73-7.1 233.81-8.5 234.88-9.9 236.51-10.9 238.13-11.9 239.98-12.55 241.83-13.2 243.43-13.65L243.43-13.65 245.98-14.4 245.98-15.7Q245.98-19 245.01-20.23 244.03-21.45 241.68-21.45L241.68-21.45Q241.43-21.45 241.21-21.45 240.98-21.45 240.73-21.4L240.73-21.4Q239.73-21.35 239.48-20.2L239.48-20.2 239.03-18.15Q238.43-15.15 236.03-15.15L236.03-15.15Q235.03-15.15 234.33-15.78 233.63-16.4 233.53-17.4L233.53-17.4Q233.98-20.2 236.56-21.95 239.13-23.7 243.33-23.7L243.33-23.7Q247.48-23.7 249.38-21.7 251.28-19.7 251.28-14.65L251.28-14.65 251.28-4.6Q251.28-2.35 252.68-2.35L252.68-2.35Q253.28-2.35 253.78-2.7L253.78-2.7Q254.13-2.95 254.23-3.13 254.33-3.3 254.43-3.4ZM245.98-4.65L245.98-4.65 245.98-12.4Q244.78-12.1 243.41-11.65 242.03-11.2 240.83-10.5 239.63-9.8 238.83-8.78 238.03-7.75 238.03-6.3L238.03-6.3Q238.03-4.6 239.06-3.65 240.08-2.7 241.78-2.7L241.78-2.7Q242.78-2.7 243.66-3.1 244.53-3.5 245.98-4.65ZM269.68-3.3L269.68-3.3Q270.23-3.6 270.63-3.6L270.63-3.6Q271.03-3.6 271.33-3.25L271.33-3.25Q271.98-2.45 271.23-1.65L271.23-1.65Q270.28-0.65 268.91-0.08 267.53 0.5 265.63 0.5L265.63 0.5Q262.88 0.5 261.31-0.88 259.73-2.25 259.73-5.2L259.73-5.2Q259.73-5.85 259.73-6.38 259.73-6.9 259.78-7.4L259.78-7.4 259.78-18.8Q259.78-20.05 258.53-20.05L258.53-20.05 257.48-20.05Q256.23-20.05 256.23-21.25L256.23-21.25Q256.23-22.4 257.38-22.55L257.38-22.55 259.13-22.75Q260.18-22.9 260.38-23.95L260.38-23.95 261.28-28.45Q261.48-29.55 262.63-29.55L262.63-29.55 264.03-29.55Q265.23-29.55 265.23-28.3L265.23-28.3 265.13-24.1Q265.13-22.85 266.38-22.85L266.38-22.85 269.83-22.85Q271.08-22.85 271.08-21.6L271.08-21.6 271.08-21.3Q271.08-20.05 269.83-20.05L269.83-20.05 266.33-20.05Q265.08-20.05 265.08-18.8L265.08-18.8 265.08-6.15Q265.08-4.3 265.81-3.5 266.53-2.7 267.68-2.7L267.68-2.7Q268.08-2.7 268.61-2.83 269.13-2.95 269.68-3.3Z" fill="black"></path><path d="M293.332-16.55L293.332-3.6Q293.382-2.55 294.482-2.3L294.482-2.3 295.332-2.15Q296.432-1.9 296.432-0.95L296.432-0.95Q296.432 0 295.182 0L295.182 0 285.982 0Q284.732 0 284.732-0.95L284.732-0.95Q284.732-1.85 285.882-2.1L285.882-2.1 286.882-2.3Q287.982-2.55 288.032-3.6L288.032-3.6 288.032-12.45Q288.032-13.45 288.032-14.25 288.032-15.05 287.982-15.75L287.982-15.75Q287.932-16.15 287.932-16.55 287.932-16.95 287.932-17.35L287.932-17.35Q287.832-18.5 286.732-18.65L286.732-18.65 285.532-18.8Q284.382-18.95 284.382-19.85L284.382-19.85Q284.382-20.65 285.382-21.05L285.382-21.05 291.882-23.4Q292.132-23.5 292.332-23.55 292.532-23.6 292.732-23.6L292.732-23.6Q292.982-23.6 293.132-23.45L293.132-23.45Q293.482-23.15 293.482-22.25L293.482-22.25 293.332-16.55ZM290.632-28.3L290.632-28.3Q289.032-28.3 288.002-29.25 286.982-30.2 286.982-31.75L286.982-31.75Q286.982-33.3 288.002-34.25 289.032-35.2 290.632-35.2L290.632-35.2Q292.182-35.2 293.202-34.25 294.232-33.3 294.232-31.75L294.232-31.75Q294.232-30.2 293.202-29.25 292.182-28.3 290.632-28.3ZM311.582-3.3L311.582-3.3Q312.132-3.6 312.522-3.6L312.522-3.6Q312.932-3.6 313.222-3.25L313.222-3.25Q313.882-2.45 313.132-1.65L313.132-1.65Q312.182-0.65 310.802-0.08 309.432 0.5 307.522 0.5L307.522 0.5Q304.772 0.5 303.202-0.88 301.632-2.25 301.632-5.2L301.632-5.2Q301.632-5.85 301.632-6.38 301.632-6.9 301.682-7.4L301.682-7.4 301.682-18.8Q301.682-20.05 300.432-20.05L300.432-20.05 299.382-20.05Q298.132-20.05 298.132-21.25L298.132-21.25Q298.132-22.4 299.272-22.55L299.272-22.55 301.022-22.75Q302.082-22.9 302.272-23.95L302.272-23.95 303.182-28.45Q303.382-29.55 304.522-29.55L304.522-29.55 305.932-29.55Q307.132-29.55 307.132-28.3L307.132-28.3 307.022-24.1Q307.022-22.85 308.272-22.85L308.272-22.85 311.722-22.85Q312.972-22.85 312.972-21.6L312.972-21.6 312.972-21.3Q312.972-20.05 311.722-20.05L311.722-20.05 308.222-20.05Q306.972-20.05 306.972-18.8L306.972-18.8 306.972-6.15Q306.972-4.3 307.702-3.5 308.432-2.7 309.582-2.7L309.582-2.7Q309.972-2.7 310.502-2.83 311.022-2.95 311.582-3.3Z" fill="black"></path><path d="M332.531-6.75L332.531-6.75Q334.131-6.75 335.201-5.65 336.281-4.55 336.281-3L336.281-3Q336.281-1.45 335.201-0.35 334.131 0.75 332.531 0.75L332.531 0.75Q330.931 0.75 329.881-0.35 328.831-1.45 328.831-3L328.831-3Q328.831-4.55 329.881-5.65 330.931-6.75 332.531-6.75ZM333.931-20.15L333.931-20.15 337.531-21.6Q338.981-22.15 339.631-22.9 340.281-23.65 340.281-24.75L340.281-24.75Q340.281-25.7 339.931-26.45L339.931-26.45Q339.581-27.3 338.581-27.4L338.581-27.4Q338.331-27.4 338.081-27.43 337.831-27.45 337.581-27.45L337.581-27.45Q337.031-27.5 336.501-27.5 335.981-27.5 335.431-27.55L335.431-27.55Q334.881-27.6 334.431-27.6 333.981-27.6 333.581-27.65L333.581-27.65Q333.181-27.7 332.881-27.7 332.581-27.7 332.431-27.7L332.431-27.7Q330.181-27.9 329.231-28.75 328.281-29.6 328.281-30.85L328.281-30.85Q328.281-32.05 329.081-32.95 329.881-33.85 331.331-33.85L331.331-33.85Q333.481-33.85 335.681-33 337.881-32.15 339.651-30.65 341.431-29.15 342.551-27.15 343.681-25.15 343.681-22.85L343.681-22.85Q343.681-20.3 342.381-18.82 341.081-17.35 338.531-16.5L338.531-16.5 336.031-15.6Q334.431-15.05 334.001-14.58 333.581-14.1 333.481-13.1L333.481-13.1 333.431-12.45Q333.331-11.25 332.381-11.25L332.381-11.25Q331.381-11.25 331.081-12.3L331.081-12.3 330.831-13.25Q330.531-14.45 330.401-15.13 330.281-15.8 330.281-16.35L330.281-16.35Q330.281-17.75 331.101-18.57 331.931-19.4 333.931-20.15Z" fill="white"></path></g></svg></g></svg></g></svg></g></svg></g><g><svg viewBox="0 0 112.02270473920045 73.61545760510293" height="73.61545760510293" width="112.02270473920045"><g><svg xmlns="http://www.w3.org/2000/svg" xmlns:xlink="http://www.w3.org/1999/xlink" version="1.1" viewBox="30.233 63.74485853455742 195.561 128.51245234818714" x="0" y="0" height="73.61545760510293" width="112.02270473920045" class="icon-icon-0" data-fill-palette-color="accent" id="SvgjsSvg6539"><path d="M200.755 110.874A7.168 7.168 0 1 1 186.419 110.874 7.168 7.168 0 1 1 200.755 110.874" fill="black"></path><path d="M172.621 110.874A7.168 7.168 0 1 1 158.285 110.874 7.168 7.168 0 1 1 172.621 110.874" fill="black"></path><path d="M186.982 123.879A7.168 7.168 0 1 1 172.646 123.879 7.168 7.168 0 1 1 186.982 123.879" fill="black"></path><path d="M186.982 97.689A7.168 7.168 0 1 1 172.646 97.689 7.168 7.168 0 1 1 186.982 97.689" fill="black"></path><path d="M224.102 124.903C222.847 109.85 221.721 104.295 220.928 98.356 219.571 88.372 215.833 79.745 209.741 73.524 203.674 67.278 195.226 63.719 185.677 63.745 175.59 63.745 166.477 68.046 160.052 74.83H95.949C89.524 68.021 80.41 63.745 70.323 63.745 60.774 63.719 52.326 67.278 46.259 73.524 40.166 79.745 36.428 88.372 35.072 98.356 34.253 104.295 33.126 109.851 31.897 124.903 31.052 135.092 30.233 144.692 30.233 153.396 30.233 158.235 30.489 162.765 31.18 167.015 32.204 173.338 34.226 179.124 38.195 183.706 40.166 185.985 42.598 187.879 45.44 189.287S51.481 191.616 55.015 192.052C56.116 192.18 57.191 192.257 58.266 192.257 63.053 192.282 67.533 190.798 71.271 188.238 76.928 184.398 81.076 178.536 84.634 171.521 87.68 165.454 90.266 158.414 92.698 150.811H163.303C166.656 161.384 170.343 170.779 175.156 178.126 177.844 182.222 180.967 185.703 184.731 188.238 188.469 190.773 192.949 192.257 197.736 192.257 198.811 192.257 199.886 192.18 200.987 192.052 205.697 191.463 209.844 190.029 213.275 187.7A23.4 23.4 0 0 0 219.65 181.3C222.159 177.562 223.669 173.236 224.565 168.551S225.794 158.797 225.794 153.344C225.769 144.691 224.949 135.065 224.104 124.902zM214.707 165.351C213.862 170.599 212.301 174.439 210.074 176.974A13.2 13.2 0 0 1 206.003 180.123C204.339 180.942 202.291 181.582 199.705 181.915 199.014 181.992 198.374 182.043 197.759 182.043 194.994 182.018 192.741 181.3 190.463 179.764 187.058 177.511 183.628 173.108 180.53 166.938 177.433 160.794 174.617 152.961 171.98 144.205L170.879 140.57H85.145L84.044 144.205C80.511 155.878 76.671 165.888 72.293 172.493 70.117 175.796 67.839 178.227 65.56 179.763 63.256 181.274 61.029 182.016 58.264 182.042 57.65 182.042 56.984 181.991 56.318 181.914 52.862 181.479 50.379 180.506 48.459 179.226 47.025 178.253 45.873 177.076 44.875 175.591 43.39 173.364 42.238 170.394 41.522 166.631S40.472 158.388 40.498 153.37C40.498 145.332 41.292 135.911 42.137 125.722 43.366 110.899 44.39 106.087 45.26 99.712 46.387 91.392 49.407 84.941 53.631 80.64 57.855 76.365 63.257 73.984 70.373 73.959 78.207 73.959 85.17 77.543 89.778 83.175L91.314 85.044H164.76L166.296 83.175C170.904 77.543 177.867 73.959 185.701 73.959 192.818 73.984 198.219 76.365 202.444 80.64 206.642 84.941 209.663 91.392 210.815 99.712 211.685 106.086 212.709 110.899 213.938 125.722 214.783 135.911 215.576 145.306 215.576 153.37 215.525 157.85 215.295 161.869 214.706 165.351z" fill="black"></path><path d="M59.673 95.667A20.24 20.24 0 0 0 54.834 108.826C54.834 114.176 56.908 119.015 60.287 122.65L73.471 109.466z" fill="black"></path><path d="M62.694 124.851C66.15 127.539 70.451 129.152 75.161 129.152 80.178 129.152 84.761 127.335 88.32 124.314L75.776 111.77 62.695 124.852z" fill="black"></path><path d="M88.986 93.927C85.351 90.548 80.512 88.474 75.162 88.474 70.145 88.474 65.562 90.291 62.003 93.312L75.776 107.111z" fill="black"></path><path d="M78.106 109.44L90.65 121.984A20.24 20.24 0 0 0 95.488 108.825C95.488 104.115 93.875 99.814 91.187 96.358z" fill="black"></path></svg></g></svg></g></svg></g><defs><mask></mask></defs></svg><rect width="395.52" height="55.98036313356389" fill="black" stroke="none" visibility="hidden"></rect></g></mask><linearGradient x1="0" x2="1" y1="0.548" y2="0.55" id="4f2cc3a2-e791-4967-b7e9-97b775ab89eb"><stop stop-color="#ff6cab" offset="0"></stop><stop stop-color="#7366ff" offset="1"></stop></linearGradient><rect width="395.52" height="55.98036313356389" fill="url(#4f2cc3a2-e791-4967-b7e9-97b775ab89eb)" mask="url(#20f2284e-3091-4888-bcf3-4536b764721b)" data-fill-palette-color="secondary"></rect><mask id="123e36b2-8413-463f-a166-0b02971f6b11"><g id="SvgjsG6553"><svg viewBox="0 0 395.52 55.98036313356389" height="55.98036313356389" width="395.52"><g><svg viewBox="0 0 520.11784422515 73.61545760510293" height="55.98036313356389" width="395.52"><g transform="matrix(1,0,0,1,124.59784422515,10.17406107277472)"><svg viewBox="0 0 395.5199999999999 53.26733545955349" height="53.26733545955349" width="395.5199999999999"><g id="SvgjsG6552"><svg viewBox="0 0 395.5199999999999 53.26733545955349" height="53.26733545955349" width="395.5199999999999" id="SvgjsSvg6551"><g><svg viewBox="0 0 395.5199999999999 53.26733545955349" height="53.26733545955349" width="395.5199999999999"><g transform="matrix(1,0,0,1,0,0)"><svg width="395.5199999999999" viewBox="1.8 -35.2 341.88072188418573 46.45" height="53.26733545955349" data-palette-color="#9d4edd"><g class="wordmark-text-0" data-fill-palette-color="primary" id="SvgjsG6550"><path d="M1.8-30.65L1.8-30.65Q1.8-31.75 3.05-31.75L3.05-31.75 16.2-31.75Q19.85-31.75 22.73-30.63 25.6-29.5 27.63-27.45 29.65-25.4 30.73-22.48 31.8-19.55 31.8-15.95L31.8-15.95Q31.8-12.2 30.58-9.22 29.35-6.25 27.18-4.2 25-2.15 21.93-1.07 18.85 0 15.2 0L15.2 0 3.05 0Q1.8 0 1.8-1.1L1.8-1.1Q1.8-2.2 3-2.3L3-2.3 4.8-2.5Q5.95-2.65 6-3.75L6-3.75Q6-5.05 6.03-6.28 6.05-7.5 6.05-8.8L6.05-8.8 6.05-23Q6.05-24.25 6.03-25.48 6-26.7 6-27.95L6-27.95Q5.9-29.1 4.8-29.25L4.8-29.25 3-29.45Q1.8-29.6 1.8-30.65ZM11.95-2.45L11.95-2.45 14.95-2.45Q17.85-2.45 19.85-3.6 21.85-4.75 23.13-6.63 24.4-8.5 24.95-10.9 25.5-13.3 25.5-15.85L25.5-15.85Q25.5-22.45 22.58-25.88 19.65-29.3 14.9-29.3L14.9-29.3 11.95-29.3Q11.9-27.75 11.88-26.25 11.85-24.75 11.85-23.15L11.85-23.15 11.85-8.75Q11.85-7.15 11.88-5.6 11.9-4.05 11.95-2.45ZM44-16.55L44-3.6Q44.05-2.55 45.15-2.3L45.15-2.3 46-2.15Q47.1-1.9 47.1-0.95L47.1-0.95Q47.1 0 45.85 0L45.85 0 36.65 0Q35.4 0 35.4-0.95L35.4-0.95Q35.4-1.85 36.55-2.1L36.55-2.1 37.55-2.3Q38.65-2.55 38.7-3.6L38.7-3.6 38.7-12.45Q38.7-13.45 38.7-14.25 38.7-15.05 38.65-15.75L38.65-15.75Q38.6-16.15 38.6-16.55 38.6-16.95 38.6-17.35L38.6-17.35Q38.5-18.5 37.4-18.65L37.4-18.65 36.2-18.8Q35.05-18.95 35.05-19.85L35.05-19.85Q35.05-20.65 36.05-21.05L36.05-21.05 42.55-23.4Q42.8-23.5 43-23.55 43.2-23.6 43.4-23.6L43.4-23.6Q43.65-23.6 43.8-23.45L43.8-23.45Q44.15-23.15 44.15-22.25L44.15-22.25 44-16.55ZM41.3-28.3L41.3-28.3Q39.7-28.3 38.67-29.25 37.65-30.2 37.65-31.75L37.65-31.75Q37.65-33.3 38.67-34.25 39.7-35.2 41.3-35.2L41.3-35.2Q42.85-35.2 43.87-34.25 44.9-33.3 44.9-31.75L44.9-31.75Q44.9-30.2 43.87-29.25 42.85-28.3 41.3-28.3ZM71.75-27.6L71.75-3.65Q71.75-2.55 72.9-2.3L72.9-2.3 73.95-2.1Q75.1-1.85 75.1-0.95L75.1-0.95Q75.1-0.05 73.9 0.05L73.9 0.05 68.2 0.4Q67 0.4 66.85-0.7L66.85-0.7 66.65-2.5Q65.2-0.9 63.6-0.08 62 0.75 59.75 0.75L59.75 0.75Q57.25 0.75 55.42-0.3 53.6-1.35 52.42-3.05 51.25-4.75 50.67-6.9 50.1-9.05 50.1-11.3L50.1-11.3Q50.1-13.6 50.75-15.83 51.4-18.05 52.67-19.8 53.95-21.55 55.87-22.63 57.8-23.7 60.35-23.7L60.35-23.7Q64.1-23.7 66.7-20.8L66.7-20.8 66.7-29.1Q66.7-30.3 65.55-30.45L65.55-30.45 63.85-30.65Q62.7-30.8 62.7-31.7L62.7-31.7Q62.7-32.6 63.8-32.9L63.8-32.9 70.4-34.6Q70.65-34.7 70.82-34.7 71-34.7 71.2-34.7L71.2-34.7Q71.55-34.7 71.65-34.6L71.65-34.6Q71.9-34.4 71.9-33.4L71.9-33.4 71.75-27.6ZM66.45-4.55L66.45-4.55 66.45-18.5Q63.85-20.5 61.8-20.5L61.8-20.5Q60.05-20.5 58.87-19.63 57.7-18.75 57.02-17.4 56.35-16.05 56.07-14.45 55.8-12.85 55.8-11.45L55.8-11.45Q55.8-6.85 57.45-4.67 59.1-2.5 61.65-2.5L61.65-2.5Q64-2.5 66.45-4.55Z" fill="black"></path><path d="M186.64-33.4L186.49-27.6 186.49-20.5Q188.04-22.1 189.74-22.9 191.44-23.7 193.59-23.7L193.59-23.7Q196.09-23.7 197.84-22.63 199.59-21.55 200.71-19.83 201.84-18.1 202.36-15.95 202.89-13.8 202.89-11.65L202.89-11.65Q202.89-9.35 202.29-7.13 201.69-4.9 200.44-3.15 199.19-1.4 197.29-0.33 195.39 0.75 192.84 0.75L192.84 0.75Q190.94 0.75 189.39 0.08 187.84-0.6 186.44-2.15L186.44-2.15 186.14-2.15 185.99-0.6Q185.84 0.55 184.59 0.55L184.59 0.55 179.19 0.1Q177.99 0 177.99-0.95L177.99-0.95Q177.99-1.85 179.14-2.1L179.14-2.1 180.14-2.3Q181.24-2.55 181.29-3.6L181.29-3.6 181.29-29.15Q181.29-30.3 180.14-30.45L180.14-30.45 178.64-30.65Q177.49-30.8 177.49-31.7L177.49-31.7Q177.49-32.6 178.54-32.9L178.54-32.9 185.09-34.6Q185.34-34.7 185.51-34.7 185.69-34.7 185.89-34.7L185.89-34.7Q186.24-34.7 186.34-34.6L186.34-34.6Q186.64-34.4 186.64-33.4L186.64-33.4ZM186.64-18.35L186.64-18.35 186.64-4.5Q189.09-2.5 191.44-2.5L191.44-2.5Q193.14-2.5 194.26-3.38 195.39-4.25 196.04-5.58 196.69-6.9 196.96-8.45 197.24-10 197.24-11.35L197.24-11.35Q197.24-15.95 195.74-18.23 194.24-20.5 191.69-20.5L191.69-20.5Q189.49-20.5 186.64-18.35ZM228.49-13.15L228.49-13.15Q228.29-12.05 227.09-12.05L227.09-12.05 212.59-12.05Q212.69-7.5 214.79-5.2 216.89-2.9 220.24-2.9L220.24-2.9Q222.19-2.9 223.56-3.63 224.94-4.35 226.09-5.65L226.09-5.65Q226.64-6.25 227.14-6.25L227.14-6.25Q227.39-6.25 227.59-6.1L227.59-6.1Q228.34-5.6 227.79-4.6L227.79-4.6Q226.49-2.05 224.04-0.7 221.59 0.65 218.29 0.65L218.29 0.65Q215.49 0.65 213.31-0.3 211.14-1.25 209.66-2.93 208.19-4.6 207.44-6.9 206.69-9.2 206.69-11.9L206.69-11.9Q206.69-14.5 207.54-16.85 208.39-19.2 209.96-20.98 211.54-22.75 213.76-23.78 215.99-24.8 218.69-24.8L218.69-24.8Q220.94-24.8 222.76-24.05 224.59-23.3 225.89-21.98 227.19-20.65 227.89-18.8 228.59-16.95 228.59-14.7L228.59-14.7Q228.59-14.3 228.59-13.93 228.59-13.55 228.49-13.15ZM212.69-14.35L212.69-14.35 220.19-14.35Q221.99-14.35 222.61-15.1 223.24-15.85 223.24-17.2L223.24-17.2Q223.24-19.45 221.96-20.95 220.69-22.45 218.79-22.45L218.79-22.45Q217.24-22.45 216.11-21.68 214.99-20.9 214.26-19.7 213.54-18.5 213.16-17.07 212.79-15.65 212.69-14.35ZM254.43-3.4L254.43-3.4Q254.53-3.5 255.08-3L255.08-3Q255.68-2.4 255.03-1.5L255.03-1.5Q254.23-0.35 253.28 0.08 252.33 0.5 251.03 0.5L251.03 0.5Q248.98 0.5 247.81-0.38 246.63-1.25 246.18-2.7L246.18-2.7Q244.58-1.1 243.08-0.18 241.58 0.75 239.23 0.75L239.23 0.75Q236.48 0.75 234.61-0.75 232.73-2.25 232.73-5.15L232.73-5.15Q232.73-7.1 233.81-8.5 234.88-9.9 236.51-10.9 238.13-11.9 239.98-12.55 241.83-13.2 243.43-13.65L243.43-13.65 245.98-14.4 245.98-15.7Q245.98-19 245.01-20.23 244.03-21.45 241.68-21.45L241.68-21.45Q241.43-21.45 241.21-21.45 240.98-21.45 240.73-21.4L240.73-21.4Q239.73-21.35 239.48-20.2L239.48-20.2 239.03-18.15Q238.43-15.15 236.03-15.15L236.03-15.15Q235.03-15.15 234.33-15.78 233.63-16.4 233.53-17.4L233.53-17.4Q233.98-20.2 236.56-21.95 239.13-23.7 243.33-23.7L243.33-23.7Q247.48-23.7 249.38-21.7 251.28-19.7 251.28-14.65L251.28-14.65 251.28-4.6Q251.28-2.35 252.68-2.35L252.68-2.35Q253.28-2.35 253.78-2.7L253.78-2.7Q254.13-2.95 254.23-3.13 254.33-3.3 254.43-3.4ZM245.98-4.65L245.98-4.65 245.98-12.4Q244.78-12.1 243.41-11.65 242.03-11.2 240.83-10.5 239.63-9.8 238.83-8.78 238.03-7.75 238.03-6.3L238.03-6.3Q238.03-4.6 239.06-3.65 240.08-2.7 241.78-2.7L241.78-2.7Q242.78-2.7 243.66-3.1 244.53-3.5 245.98-4.65ZM269.68-3.3L269.68-3.3Q270.23-3.6 270.63-3.6L270.63-3.6Q271.03-3.6 271.33-3.25L271.33-3.25Q271.98-2.45 271.23-1.65L271.23-1.65Q270.28-0.65 268.91-0.08 267.53 0.5 265.63 0.5L265.63 0.5Q262.88 0.5 261.31-0.88 259.73-2.25 259.73-5.2L259.73-5.2Q259.73-5.85 259.73-6.38 259.73-6.9 259.78-7.4L259.78-7.4 259.78-18.8Q259.78-20.05 258.53-20.05L258.53-20.05 257.48-20.05Q256.23-20.05 256.23-21.25L256.23-21.25Q256.23-22.4 257.38-22.55L257.38-22.55 259.13-22.75Q260.18-22.9 260.38-23.95L260.38-23.95 261.28-28.45Q261.48-29.55 262.63-29.55L262.63-29.55 264.03-29.55Q265.23-29.55 265.23-28.3L265.23-28.3 265.13-24.1Q265.13-22.85 266.38-22.85L266.38-22.85 269.83-22.85Q271.08-22.85 271.08-21.6L271.08-21.6 271.08-21.3Q271.08-20.05 269.83-20.05L269.83-20.05 266.33-20.05Q265.08-20.05 265.08-18.8L265.08-18.8 265.08-6.15Q265.08-4.3 265.81-3.5 266.53-2.7 267.68-2.7L267.68-2.7Q268.08-2.7 268.61-2.83 269.13-2.95 269.68-3.3Z" fill="white"></path><path d="M293.332-16.55L293.332-3.6Q293.382-2.55 294.482-2.3L294.482-2.3 295.332-2.15Q296.432-1.9 296.432-0.95L296.432-0.95Q296.432 0 295.182 0L295.182 0 285.982 0Q284.732 0 284.732-0.95L284.732-0.95Q284.732-1.85 285.882-2.1L285.882-2.1 286.882-2.3Q287.982-2.55 288.032-3.6L288.032-3.6 288.032-12.45Q288.032-13.45 288.032-14.25 288.032-15.05 287.982-15.75L287.982-15.75Q287.932-16.15 287.932-16.55 287.932-16.95 287.932-17.35L287.932-17.35Q287.832-18.5 286.732-18.65L286.732-18.65 285.532-18.8Q284.382-18.95 284.382-19.85L284.382-19.85Q284.382-20.65 285.382-21.05L285.382-21.05 291.882-23.4Q292.132-23.5 292.332-23.55 292.532-23.6 292.732-23.6L292.732-23.6Q292.982-23.6 293.132-23.45L293.132-23.45Q293.482-23.15 293.482-22.25L293.482-22.25 293.332-16.55ZM290.632-28.3L290.632-28.3Q289.032-28.3 288.002-29.25 286.982-30.2 286.982-31.75L286.982-31.75Q286.982-33.3 288.002-34.25 289.032-35.2 290.632-35.2L290.632-35.2Q292.182-35.2 293.202-34.25 294.232-33.3 294.232-31.75L294.232-31.75Q294.232-30.2 293.202-29.25 292.182-28.3 290.632-28.3ZM311.582-3.3L311.582-3.3Q312.132-3.6 312.522-3.6L312.522-3.6Q312.932-3.6 313.222-3.25L313.222-3.25Q313.882-2.45 313.132-1.65L313.132-1.65Q312.182-0.65 310.802-0.08 309.432 0.5 307.522 0.5L307.522 0.5Q304.772 0.5 303.202-0.88 301.632-2.25 301.632-5.2L301.632-5.2Q301.632-5.85 301.632-6.38 301.632-6.9 301.682-7.4L301.682-7.4 301.682-18.8Q301.682-20.05 300.432-20.05L300.432-20.05 299.382-20.05Q298.132-20.05 298.132-21.25L298.132-21.25Q298.132-22.4 299.272-22.55L299.272-22.55 301.022-22.75Q302.082-22.9 302.272-23.95L302.272-23.95 303.182-28.45Q303.382-29.55 304.522-29.55L304.522-29.55 305.932-29.55Q307.132-29.55 307.132-28.3L307.132-28.3 307.022-24.1Q307.022-22.85 308.272-22.85L308.272-22.85 311.722-22.85Q312.972-22.85 312.972-21.6L312.972-21.6 312.972-21.3Q312.972-20.05 311.722-20.05L311.722-20.05 308.222-20.05Q306.972-20.05 306.972-18.8L306.972-18.8 306.972-6.15Q306.972-4.3 307.702-3.5 308.432-2.7 309.582-2.7L309.582-2.7Q309.972-2.7 310.502-2.83 311.022-2.95 311.582-3.3Z" fill="black"></path></g></svg></g></svg></g></svg></g></svg></g><g><svg viewBox="0 0 112.02270473920045 73.61545760510293" height="73.61545760510293" width="112.02270473920045"><g><svg xmlns="http://www.w3.org/2000/svg" xmlns:xlink="http://www.w3.org/1999/xlink" version="1.1" viewBox="30.233 63.74485853455742 195.561 128.51245234818714" x="0" y="0" height="73.61545760510293" width="112.02270473920045" class="icon-icon-0" data-fill-palette-color="accent" id="SvgjsSvg6549"><path d="M200.755 110.874A7.168 7.168 0 1 1 186.419 110.874 7.168 7.168 0 1 1 200.755 110.874" fill="black"></path><path d="M172.621 110.874A7.168 7.168 0 1 1 158.285 110.874 7.168 7.168 0 1 1 172.621 110.874" fill="black"></path><path d="M186.982 123.879A7.168 7.168 0 1 1 172.646 123.879 7.168 7.168 0 1 1 186.982 123.879" fill="black"></path><path d="M186.982 97.689A7.168 7.168 0 1 1 172.646 97.689 7.168 7.168 0 1 1 186.982 97.689" fill="black"></path><path d="M224.102 124.903C222.847 109.85 221.721 104.295 220.928 98.356 219.571 88.372 215.833 79.745 209.741 73.524 203.674 67.278 195.226 63.719 185.677 63.745 175.59 63.745 166.477 68.046 160.052 74.83H95.949C89.524 68.021 80.41 63.745 70.323 63.745 60.774 63.719 52.326 67.278 46.259 73.524 40.166 79.745 36.428 88.372 35.072 98.356 34.253 104.295 33.126 109.851 31.897 124.903 31.052 135.092 30.233 144.692 30.233 153.396 30.233 158.235 30.489 162.765 31.18 167.015 32.204 173.338 34.226 179.124 38.195 183.706 40.166 185.985 42.598 187.879 45.44 189.287S51.481 191.616 55.015 192.052C56.116 192.18 57.191 192.257 58.266 192.257 63.053 192.282 67.533 190.798 71.271 188.238 76.928 184.398 81.076 178.536 84.634 171.521 87.68 165.454 90.266 158.414 92.698 150.811H163.303C166.656 161.384 170.343 170.779 175.156 178.126 177.844 182.222 180.967 185.703 184.731 188.238 188.469 190.773 192.949 192.257 197.736 192.257 198.811 192.257 199.886 192.18 200.987 192.052 205.697 191.463 209.844 190.029 213.275 187.7A23.4 23.4 0 0 0 219.65 181.3C222.159 177.562 223.669 173.236 224.565 168.551S225.794 158.797 225.794 153.344C225.769 144.691 224.949 135.065 224.104 124.902zM214.707 165.351C213.862 170.599 212.301 174.439 210.074 176.974A13.2 13.2 0 0 1 206.003 180.123C204.339 180.942 202.291 181.582 199.705 181.915 199.014 181.992 198.374 182.043 197.759 182.043 194.994 182.018 192.741 181.3 190.463 179.764 187.058 177.511 183.628 173.108 180.53 166.938 177.433 160.794 174.617 152.961 171.98 144.205L170.879 140.57H85.145L84.044 144.205C80.511 155.878 76.671 165.888 72.293 172.493 70.117 175.796 67.839 178.227 65.56 179.763 63.256 181.274 61.029 182.016 58.264 182.042 57.65 182.042 56.984 181.991 56.318 181.914 52.862 181.479 50.379 180.506 48.459 179.226 47.025 178.253 45.873 177.076 44.875 175.591 43.39 173.364 42.238 170.394 41.522 166.631S40.472 158.388 40.498 153.37C40.498 145.332 41.292 135.911 42.137 125.722 43.366 110.899 44.39 106.087 45.26 99.712 46.387 91.392 49.407 84.941 53.631 80.64 57.855 76.365 63.257 73.984 70.373 73.959 78.207 73.959 85.17 77.543 89.778 83.175L91.314 85.044H164.76L166.296 83.175C170.904 77.543 177.867 73.959 185.701 73.959 192.818 73.984 198.219 76.365 202.444 80.64 206.642 84.941 209.663 91.392 210.815 99.712 211.685 106.086 212.709 110.899 213.938 125.722 214.783 135.911 215.576 145.306 215.576 153.37 215.525 157.85 215.295 161.869 214.706 165.351z" fill="black"></path><path d="M59.673 95.667A20.24 20.24 0 0 0 54.834 108.826C54.834 114.176 56.908 119.015 60.287 122.65L73.471 109.466z" fill="black"></path><path d="M62.694 124.851C66.15 127.539 70.451 129.152 75.161 129.152 80.178 129.152 84.761 127.335 88.32 124.314L75.776 111.77 62.695 124.852z" fill="black"></path><path d="M88.986 93.927C85.351 90.548 80.512 88.474 75.162 88.474 70.145 88.474 65.562 90.291 62.003 93.312L75.776 107.111z" fill="black"></path><path d="M78.106 109.44L90.65 121.984A20.24 20.24 0 0 0 95.488 108.825C95.488 104.115 93.875 99.814 91.187 96.358z" fill="black"></path></svg></g></svg></g></svg></g><defs><mask></mask></defs><mask><g id="SvgjsG6548"><svg viewBox="0 0 395.52 55.98036313356389" height="55.98036313356389" width="395.52"><g><svg viewBox="0 0 520.11784422515 73.61545760510293" height="55.98036313356389" width="395.52"><g transform="matrix(1,0,0,1,124.59784422515,10.17406107277472)"><svg viewBox="0 0 395.5199999999999 53.26733545955349" height="53.26733545955349" width="395.5199999999999"><g id="SvgjsG6547"><svg viewBox="0 0 395.5199999999999 53.26733545955349" height="53.26733545955349" width="395.5199999999999" id="SvgjsSvg6546"><g><svg viewBox="0 0 395.5199999999999 53.26733545955349" height="53.26733545955349" width="395.5199999999999"><g transform="matrix(1,0,0,1,0,0)"><svg width="395.5199999999999" viewBox="1.8 -35.2 341.88072188418573 46.45" height="53.26733545955349" data-palette-color="#9d4edd"><g class="wordmark-text-0" data-fill-palette-color="primary" id="SvgjsG6545"><path d="M1.8-30.65L1.8-30.65Q1.8-31.75 3.05-31.75L3.05-31.75 16.2-31.75Q19.85-31.75 22.73-30.63 25.6-29.5 27.63-27.45 29.65-25.4 30.73-22.48 31.8-19.55 31.8-15.95L31.8-15.95Q31.8-12.2 30.58-9.22 29.35-6.25 27.18-4.2 25-2.15 21.93-1.07 18.85 0 15.2 0L15.2 0 3.05 0Q1.8 0 1.8-1.1L1.8-1.1Q1.8-2.2 3-2.3L3-2.3 4.8-2.5Q5.95-2.65 6-3.75L6-3.75Q6-5.05 6.03-6.28 6.05-7.5 6.05-8.8L6.05-8.8 6.05-23Q6.05-24.25 6.03-25.48 6-26.7 6-27.95L6-27.95Q5.9-29.1 4.8-29.25L4.8-29.25 3-29.45Q1.8-29.6 1.8-30.65ZM11.95-2.45L11.95-2.45 14.95-2.45Q17.85-2.45 19.85-3.6 21.85-4.75 23.13-6.63 24.4-8.5 24.95-10.9 25.5-13.3 25.5-15.85L25.5-15.85Q25.5-22.45 22.58-25.88 19.65-29.3 14.9-29.3L14.9-29.3 11.95-29.3Q11.9-27.75 11.88-26.25 11.85-24.75 11.85-23.15L11.85-23.15 11.85-8.75Q11.85-7.15 11.88-5.6 11.9-4.05 11.95-2.45ZM44-16.55L44-3.6Q44.05-2.55 45.15-2.3L45.15-2.3 46-2.15Q47.1-1.9 47.1-0.95L47.1-0.95Q47.1 0 45.85 0L45.85 0 36.65 0Q35.4 0 35.4-0.95L35.4-0.95Q35.4-1.85 36.55-2.1L36.55-2.1 37.55-2.3Q38.65-2.55 38.7-3.6L38.7-3.6 38.7-12.45Q38.7-13.45 38.7-14.25 38.7-15.05 38.65-15.75L38.65-15.75Q38.6-16.15 38.6-16.55 38.6-16.95 38.6-17.35L38.6-17.35Q38.5-18.5 37.4-18.65L37.4-18.65 36.2-18.8Q35.05-18.95 35.05-19.85L35.05-19.85Q35.05-20.65 36.05-21.05L36.05-21.05 42.55-23.4Q42.8-23.5 43-23.55 43.2-23.6 43.4-23.6L43.4-23.6Q43.65-23.6 43.8-23.45L43.8-23.45Q44.15-23.15 44.15-22.25L44.15-22.25 44-16.55ZM41.3-28.3L41.3-28.3Q39.7-28.3 38.67-29.25 37.65-30.2 37.65-31.75L37.65-31.75Q37.65-33.3 38.67-34.25 39.7-35.2 41.3-35.2L41.3-35.2Q42.85-35.2 43.87-34.25 44.9-33.3 44.9-31.75L44.9-31.75Q44.9-30.2 43.87-29.25 42.85-28.3 41.3-28.3ZM71.75-27.6L71.75-3.65Q71.75-2.55 72.9-2.3L72.9-2.3 73.95-2.1Q75.1-1.85 75.1-0.95L75.1-0.95Q75.1-0.05 73.9 0.05L73.9 0.05 68.2 0.4Q67 0.4 66.85-0.7L66.85-0.7 66.65-2.5Q65.2-0.9 63.6-0.08 62 0.75 59.75 0.75L59.75 0.75Q57.25 0.75 55.42-0.3 53.6-1.35 52.42-3.05 51.25-4.75 50.67-6.9 50.1-9.05 50.1-11.3L50.1-11.3Q50.1-13.6 50.75-15.83 51.4-18.05 52.67-19.8 53.95-21.55 55.87-22.63 57.8-23.7 60.35-23.7L60.35-23.7Q64.1-23.7 66.7-20.8L66.7-20.8 66.7-29.1Q66.7-30.3 65.55-30.45L65.55-30.45 63.85-30.65Q62.7-30.8 62.7-31.7L62.7-31.7Q62.7-32.6 63.8-32.9L63.8-32.9 70.4-34.6Q70.65-34.7 70.82-34.7 71-34.7 71.2-34.7L71.2-34.7Q71.55-34.7 71.65-34.6L71.65-34.6Q71.9-34.4 71.9-33.4L71.9-33.4 71.75-27.6ZM66.45-4.55L66.45-4.55 66.45-18.5Q63.85-20.5 61.8-20.5L61.8-20.5Q60.05-20.5 58.87-19.63 57.7-18.75 57.02-17.4 56.35-16.05 56.07-14.45 55.8-12.85 55.8-11.45L55.8-11.45Q55.8-6.85 57.45-4.67 59.1-2.5 61.65-2.5L61.65-2.5Q64-2.5 66.45-4.55Z" fill="black"></path><path d="M103-22.85L109.6-22.85Q110.85-22.85 110.85-21.85L110.85-21.85Q110.85-20.85 109.7-20.6L109.7-20.6 108.95-20.45Q107.95-20.3 107.6-19.35L107.6-19.35 100.45 0.2Q99.9 1.75 99.12 3.68 98.35 5.6 97.25 7.28 96.15 8.95 94.65 10.1 93.15 11.25 91.15 11.25L91.15 11.25Q89.25 11.25 87.87 10.38 86.5 9.5 86.5 7.95L86.5 7.95Q86.85 6.8 87.7 6.33 88.55 5.85 89.65 5.85L89.65 5.85Q90.55 5.85 91.37 6.15 92.2 6.45 93.2 7.45L93.2 7.45Q93.35 7.6 93.6 7.6L93.6 7.6Q94.15 7.6 94.8 6.83 95.45 6.05 96.05 5.03 96.65 4 97.12 3 97.6 2 97.75 1.6L97.75 1.6 89.2-19.4Q88.85-20.25 87.9-20.45L87.9-20.45 87.2-20.6Q86.1-20.8 86.1-21.85L86.1-21.85Q86.1-22.85 87.35-22.85L87.35-22.85 97.2-22.85Q98.45-22.85 98.45-21.85L98.45-21.85Q98.45-20.75 97.3-20.6L97.3-20.6 96.1-20.4Q94.75-20.15 95.2-18.9L95.2-18.9 100.2-5.35 104.9-18.95Q105.35-20.2 104-20.45L104-20.45 102.9-20.6Q101.75-20.75 101.75-21.85L101.75-21.85Q101.75-22.85 103-22.85L103-22.85ZM124.65-23.7L124.65-23.7Q127.25-23.7 129.4-22.73 131.55-21.75 133.07-20.08 134.6-18.4 135.42-16.18 136.25-13.95 136.25-11.4L136.25-11.4Q136.25-8.8 135.42-6.58 134.6-4.35 133.1-2.73 131.6-1.1 129.44-0.18 127.3 0.75 124.65 0.75L124.65 0.75Q122 0.75 119.85-0.18 117.7-1.1 116.2-2.73 114.7-4.35 113.87-6.58 113.05-8.8 113.05-11.4L113.05-11.4Q113.05-13.95 113.87-16.2 114.7-18.45 116.22-20.1 117.75-21.75 119.87-22.73 122-23.7 124.65-23.7ZM124.65-21.45L124.65-21.45Q118.9-21.45 118.9-11.45L118.9-11.45Q118.9-1.55 124.65-1.55L124.65-1.55Q130.4-1.55 130.4-11.45L130.4-11.45Q130.4-21.45 124.65-21.45ZM162.14-16L162.14-3.65Q162.14-2.5 163.24-2.3L163.24-2.3 164.04-2.15Q165.14-1.9 165.14-0.95L165.14-0.95Q165.14 0 163.94 0.1L163.94 0.1 158.59 0.45 158.49 0.45Q157.39 0.45 157.24-0.7L157.24-0.7 156.94-3.6Q153.19 0.75 148.64 0.75L148.64 0.75Q147.19 0.75 145.99 0.28 144.79-0.2 143.94-1.25L143.94-1.25Q143.09-2.25 142.64-3.88 142.19-5.5 142.24-7.9L142.24-7.9 142.34-18.95Q142.34-20.05 141.19-20.3L141.19-20.3 140.49-20.45Q139.39-20.65 139.39-21.6L139.39-21.6Q139.39-22.5 140.59-22.6L140.59-22.6 146.39-23.1Q146.59-23.1 146.74-23.13 146.89-23.15 146.99-23.15L146.99-23.15Q147.34-23.15 147.54-23.05L147.54-23.05Q147.74-22.85 147.74-21.9L147.74-21.9 147.54-16 147.54-8.6Q147.54-5.45 148.42-4.2 149.29-2.95 150.89-2.95L150.89-2.95Q152.34-2.95 153.87-3.78 155.39-4.6 156.79-5.95L156.79-5.95 156.94-18.95Q156.94-20.05 155.79-20.3L155.79-20.3 155.09-20.45Q153.99-20.65 153.99-21.55L153.99-21.55Q153.99-22.45 155.19-22.55L155.19-22.55 160.89-23.1Q161.09-23.1 161.24-23.13 161.39-23.15 161.49-23.15L161.49-23.15Q161.84-23.15 162.04-23.05L162.04-23.05Q162.14-22.95 162.22-22.7 162.29-22.45 162.29-21.9L162.29-21.9 162.14-16Z" fill="black"></path><path d="M186.64-33.4L186.49-27.6 186.49-20.5Q188.04-22.1 189.74-22.9 191.44-23.7 193.59-23.7L193.59-23.7Q196.09-23.7 197.84-22.63 199.59-21.55 200.71-19.83 201.84-18.1 202.36-15.95 202.89-13.8 202.89-11.65L202.89-11.65Q202.89-9.35 202.29-7.13 201.69-4.9 200.44-3.15 199.19-1.4 197.29-0.33 195.39 0.75 192.84 0.75L192.84 0.75Q190.94 0.75 189.39 0.08 187.84-0.6 186.44-2.15L186.44-2.15 186.14-2.15 185.99-0.6Q185.84 0.55 184.59 0.55L184.59 0.55 179.19 0.1Q177.99 0 177.99-0.95L177.99-0.95Q177.99-1.85 179.14-2.1L179.14-2.1 180.14-2.3Q181.24-2.55 181.29-3.6L181.29-3.6 181.29-29.15Q181.29-30.3 180.14-30.45L180.14-30.45 178.64-30.65Q177.49-30.8 177.49-31.7L177.49-31.7Q177.49-32.6 178.54-32.9L178.54-32.9 185.09-34.6Q185.34-34.7 185.51-34.7 185.69-34.7 185.89-34.7L185.89-34.7Q186.24-34.7 186.34-34.6L186.34-34.6Q186.64-34.4 186.64-33.4L186.64-33.4ZM186.64-18.35L186.64-18.35 186.64-4.5Q189.09-2.5 191.44-2.5L191.44-2.5Q193.14-2.5 194.26-3.38 195.39-4.25 196.04-5.58 196.69-6.9 196.96-8.45 197.24-10 197.24-11.35L197.24-11.35Q197.24-15.95 195.74-18.23 194.24-20.5 191.69-20.5L191.69-20.5Q189.49-20.5 186.64-18.35ZM228.49-13.15L228.49-13.15Q228.29-12.05 227.09-12.05L227.09-12.05 212.59-12.05Q212.69-7.5 214.79-5.2 216.89-2.9 220.24-2.9L220.24-2.9Q222.19-2.9 223.56-3.63 224.94-4.35 226.09-5.65L226.09-5.65Q226.64-6.25 227.14-6.25L227.14-6.25Q227.39-6.25 227.59-6.1L227.59-6.1Q228.34-5.6 227.79-4.6L227.79-4.6Q226.49-2.05 224.04-0.7 221.59 0.65 218.29 0.65L218.29 0.65Q215.49 0.65 213.31-0.3 211.14-1.25 209.66-2.93 208.19-4.6 207.44-6.9 206.69-9.2 206.69-11.9L206.69-11.9Q206.69-14.5 207.54-16.85 208.39-19.2 209.96-20.98 211.54-22.75 213.76-23.78 215.99-24.8 218.69-24.8L218.69-24.8Q220.94-24.8 222.76-24.05 224.59-23.3 225.89-21.98 227.19-20.65 227.89-18.8 228.59-16.95 228.59-14.7L228.59-14.7Q228.59-14.3 228.59-13.93 228.59-13.55 228.49-13.15ZM212.69-14.35L212.69-14.35 220.19-14.35Q221.99-14.35 222.61-15.1 223.24-15.85 223.24-17.2L223.24-17.2Q223.24-19.45 221.96-20.95 220.69-22.45 218.79-22.45L218.79-22.45Q217.24-22.45 216.11-21.68 214.99-20.9 214.26-19.7 213.54-18.5 213.16-17.07 212.79-15.65 212.69-14.35ZM254.43-3.4L254.43-3.4Q254.53-3.5 255.08-3L255.08-3Q255.68-2.4 255.03-1.5L255.03-1.5Q254.23-0.35 253.28 0.08 252.33 0.5 251.03 0.5L251.03 0.5Q248.98 0.5 247.81-0.38 246.63-1.25 246.18-2.7L246.18-2.7Q244.58-1.1 243.08-0.18 241.58 0.75 239.23 0.75L239.23 0.75Q236.48 0.75 234.61-0.75 232.73-2.25 232.73-5.15L232.73-5.15Q232.73-7.1 233.81-8.5 234.88-9.9 236.51-10.9 238.13-11.9 239.98-12.55 241.83-13.2 243.43-13.65L243.43-13.65 245.98-14.4 245.98-15.7Q245.98-19 245.01-20.23 244.03-21.45 241.68-21.45L241.68-21.45Q241.43-21.45 241.21-21.45 240.98-21.45 240.73-21.4L240.73-21.4Q239.73-21.35 239.48-20.2L239.48-20.2 239.03-18.15Q238.43-15.15 236.03-15.15L236.03-15.15Q235.03-15.15 234.33-15.78 233.63-16.4 233.53-17.4L233.53-17.4Q233.98-20.2 236.56-21.95 239.13-23.7 243.33-23.7L243.33-23.7Q247.48-23.7 249.38-21.7 251.28-19.7 251.28-14.65L251.28-14.65 251.28-4.6Q251.28-2.35 252.68-2.35L252.68-2.35Q253.28-2.35 253.78-2.7L253.78-2.7Q254.13-2.95 254.23-3.13 254.33-3.3 254.43-3.4ZM245.98-4.65L245.98-4.65 245.98-12.4Q244.78-12.1 243.41-11.65 242.03-11.2 240.83-10.5 239.63-9.8 238.83-8.78 238.03-7.75 238.03-6.3L238.03-6.3Q238.03-4.6 239.06-3.65 240.08-2.7 241.78-2.7L241.78-2.7Q242.78-2.7 243.66-3.1 244.53-3.5 245.98-4.65ZM269.68-3.3L269.68-3.3Q270.23-3.6 270.63-3.6L270.63-3.6Q271.03-3.6 271.33-3.25L271.33-3.25Q271.98-2.45 271.23-1.65L271.23-1.65Q270.28-0.65 268.91-0.08 267.53 0.5 265.63 0.5L265.63 0.5Q262.88 0.5 261.31-0.88 259.73-2.25 259.73-5.2L259.73-5.2Q259.73-5.85 259.73-6.38 259.73-6.9 259.78-7.4L259.78-7.4 259.78-18.8Q259.78-20.05 258.53-20.05L258.53-20.05 257.48-20.05Q256.23-20.05 256.23-21.25L256.23-21.25Q256.23-22.4 257.38-22.55L257.38-22.55 259.13-22.75Q260.18-22.9 260.38-23.95L260.38-23.95 261.28-28.45Q261.48-29.55 262.63-29.55L262.63-29.55 264.03-29.55Q265.23-29.55 265.23-28.3L265.23-28.3 265.13-24.1Q265.13-22.85 266.38-22.85L266.38-22.85 269.83-22.85Q271.08-22.85 271.08-21.6L271.08-21.6 271.08-21.3Q271.08-20.05 269.83-20.05L269.83-20.05 266.33-20.05Q265.08-20.05 265.08-18.8L265.08-18.8 265.08-6.15Q265.08-4.3 265.81-3.5 266.53-2.7 267.68-2.7L267.68-2.7Q268.08-2.7 268.61-2.83 269.13-2.95 269.68-3.3Z" fill="black"></path><path d="M293.332-16.55L293.332-3.6Q293.382-2.55 294.482-2.3L294.482-2.3 295.332-2.15Q296.432-1.9 296.432-0.95L296.432-0.95Q296.432 0 295.182 0L295.182 0 285.982 0Q284.732 0 284.732-0.95L284.732-0.95Q284.732-1.85 285.882-2.1L285.882-2.1 286.882-2.3Q287.982-2.55 288.032-3.6L288.032-3.6 288.032-12.45Q288.032-13.45 288.032-14.25 288.032-15.05 287.982-15.75L287.982-15.75Q287.932-16.15 287.932-16.55 287.932-16.95 287.932-17.35L287.932-17.35Q287.832-18.5 286.732-18.65L286.732-18.65 285.532-18.8Q284.382-18.95 284.382-19.85L284.382-19.85Q284.382-20.65 285.382-21.05L285.382-21.05 291.882-23.4Q292.132-23.5 292.332-23.55 292.532-23.6 292.732-23.6L292.732-23.6Q292.982-23.6 293.132-23.45L293.132-23.45Q293.482-23.15 293.482-22.25L293.482-22.25 293.332-16.55ZM290.632-28.3L290.632-28.3Q289.032-28.3 288.002-29.25 286.982-30.2 286.982-31.75L286.982-31.75Q286.982-33.3 288.002-34.25 289.032-35.2 290.632-35.2L290.632-35.2Q292.182-35.2 293.202-34.25 294.232-33.3 294.232-31.75L294.232-31.75Q294.232-30.2 293.202-29.25 292.182-28.3 290.632-28.3ZM311.582-3.3L311.582-3.3Q312.132-3.6 312.522-3.6L312.522-3.6Q312.932-3.6 313.222-3.25L313.222-3.25Q313.882-2.45 313.132-1.65L313.132-1.65Q312.182-0.65 310.802-0.08 309.432 0.5 307.522 0.5L307.522 0.5Q304.772 0.5 303.202-0.88 301.632-2.25 301.632-5.2L301.632-5.2Q301.632-5.85 301.632-6.38 301.632-6.9 301.682-7.4L301.682-7.4 301.682-18.8Q301.682-20.05 300.432-20.05L300.432-20.05 299.382-20.05Q298.132-20.05 298.132-21.25L298.132-21.25Q298.132-22.4 299.272-22.55L299.272-22.55 301.022-22.75Q302.082-22.9 302.272-23.95L302.272-23.95 303.182-28.45Q303.382-29.55 304.522-29.55L304.522-29.55 305.932-29.55Q307.132-29.55 307.132-28.3L307.132-28.3 307.022-24.1Q307.022-22.85 308.272-22.85L308.272-22.85 311.722-22.85Q312.972-22.85 312.972-21.6L312.972-21.6 312.972-21.3Q312.972-20.05 311.722-20.05L311.722-20.05 308.222-20.05Q306.972-20.05 306.972-18.8L306.972-18.8 306.972-6.15Q306.972-4.3 307.702-3.5 308.432-2.7 309.582-2.7L309.582-2.7Q309.972-2.7 310.502-2.83 311.022-2.95 311.582-3.3Z" fill="black"></path><path d="M332.531-6.75L332.531-6.75Q334.131-6.75 335.201-5.65 336.281-4.55 336.281-3L336.281-3Q336.281-1.45 335.201-0.35 334.131 0.75 332.531 0.75L332.531 0.75Q330.931 0.75 329.881-0.35 328.831-1.45 328.831-3L328.831-3Q328.831-4.55 329.881-5.65 330.931-6.75 332.531-6.75ZM333.931-20.15L333.931-20.15 337.531-21.6Q338.981-22.15 339.631-22.9 340.281-23.65 340.281-24.75L340.281-24.75Q340.281-25.7 339.931-26.45L339.931-26.45Q339.581-27.3 338.581-27.4L338.581-27.4Q338.331-27.4 338.081-27.43 337.831-27.45 337.581-27.45L337.581-27.45Q337.031-27.5 336.501-27.5 335.981-27.5 335.431-27.55L335.431-27.55Q334.881-27.6 334.431-27.6 333.981-27.6 333.581-27.65L333.581-27.65Q333.181-27.7 332.881-27.7 332.581-27.7 332.431-27.7L332.431-27.7Q330.181-27.9 329.231-28.75 328.281-29.6 328.281-30.85L328.281-30.85Q328.281-32.05 329.081-32.95 329.881-33.85 331.331-33.85L331.331-33.85Q333.481-33.85 335.681-33 337.881-32.15 339.651-30.65 341.431-29.15 342.551-27.15 343.681-25.15 343.681-22.85L343.681-22.85Q343.681-20.3 342.381-18.82 341.081-17.35 338.531-16.5L338.531-16.5 336.031-15.6Q334.431-15.05 334.001-14.58 333.581-14.1 333.481-13.1L333.481-13.1 333.431-12.45Q333.331-11.25 332.381-11.25L332.381-11.25Q331.381-11.25 331.081-12.3L331.081-12.3 330.831-13.25Q330.531-14.45 330.401-15.13 330.281-15.8 330.281-16.35L330.281-16.35Q330.281-17.75 331.101-18.57 331.931-19.4 333.931-20.15Z" fill="black"></path></g></svg></g></svg></g></svg></g></svg></g><g><svg viewBox="0 0 112.02270473920045 73.61545760510293" height="73.61545760510293" width="112.02270473920045"><g><svg xmlns="http://www.w3.org/2000/svg" xmlns:xlink="http://www.w3.org/1999/xlink" version="1.1" viewBox="30.233 63.74485853455742 195.561 128.51245234818714" x="0" y="0" height="73.61545760510293" width="112.02270473920045" class="icon-icon-0" data-fill-palette-color="accent" id="SvgjsSvg6544"><path d="M200.755 110.874A7.168 7.168 0 1 1 186.419 110.874 7.168 7.168 0 1 1 200.755 110.874" fill="black"></path><path d="M172.621 110.874A7.168 7.168 0 1 1 158.285 110.874 7.168 7.168 0 1 1 172.621 110.874" fill="black"></path><path d="M186.982 123.879A7.168 7.168 0 1 1 172.646 123.879 7.168 7.168 0 1 1 186.982 123.879" fill="black"></path><path d="M186.982 97.689A7.168 7.168 0 1 1 172.646 97.689 7.168 7.168 0 1 1 186.982 97.689" fill="black"></path><path d="M224.102 124.903C222.847 109.85 221.721 104.295 220.928 98.356 219.571 88.372 215.833 79.745 209.741 73.524 203.674 67.278 195.226 63.719 185.677 63.745 175.59 63.745 166.477 68.046 160.052 74.83H95.949C89.524 68.021 80.41 63.745 70.323 63.745 60.774 63.719 52.326 67.278 46.259 73.524 40.166 79.745 36.428 88.372 35.072 98.356 34.253 104.295 33.126 109.851 31.897 124.903 31.052 135.092 30.233 144.692 30.233 153.396 30.233 158.235 30.489 162.765 31.18 167.015 32.204 173.338 34.226 179.124 38.195 183.706 40.166 185.985 42.598 187.879 45.44 189.287S51.481 191.616 55.015 192.052C56.116 192.18 57.191 192.257 58.266 192.257 63.053 192.282 67.533 190.798 71.271 188.238 76.928 184.398 81.076 178.536 84.634 171.521 87.68 165.454 90.266 158.414 92.698 150.811H163.303C166.656 161.384 170.343 170.779 175.156 178.126 177.844 182.222 180.967 185.703 184.731 188.238 188.469 190.773 192.949 192.257 197.736 192.257 198.811 192.257 199.886 192.18 200.987 192.052 205.697 191.463 209.844 190.029 213.275 187.7A23.4 23.4 0 0 0 219.65 181.3C222.159 177.562 223.669 173.236 224.565 168.551S225.794 158.797 225.794 153.344C225.769 144.691 224.949 135.065 224.104 124.902zM214.707 165.351C213.862 170.599 212.301 174.439 210.074 176.974A13.2 13.2 0 0 1 206.003 180.123C204.339 180.942 202.291 181.582 199.705 181.915 199.014 181.992 198.374 182.043 197.759 182.043 194.994 182.018 192.741 181.3 190.463 179.764 187.058 177.511 183.628 173.108 180.53 166.938 177.433 160.794 174.617 152.961 171.98 144.205L170.879 140.57H85.145L84.044 144.205C80.511 155.878 76.671 165.888 72.293 172.493 70.117 175.796 67.839 178.227 65.56 179.763 63.256 181.274 61.029 182.016 58.264 182.042 57.65 182.042 56.984 181.991 56.318 181.914 52.862 181.479 50.379 180.506 48.459 179.226 47.025 178.253 45.873 177.076 44.875 175.591 43.39 173.364 42.238 170.394 41.522 166.631S40.472 158.388 40.498 153.37C40.498 145.332 41.292 135.911 42.137 125.722 43.366 110.899 44.39 106.087 45.26 99.712 46.387 91.392 49.407 84.941 53.631 80.64 57.855 76.365 63.257 73.984 70.373 73.959 78.207 73.959 85.17 77.543 89.778 83.175L91.314 85.044H164.76L166.296 83.175C170.904 77.543 177.867 73.959 185.701 73.959 192.818 73.984 198.219 76.365 202.444 80.64 206.642 84.941 209.663 91.392 210.815 99.712 211.685 106.086 212.709 110.899 213.938 125.722 214.783 135.911 215.576 145.306 215.576 153.37 215.525 157.85 215.295 161.869 214.706 165.351z" fill="black"></path><path d="M59.673 95.667A20.24 20.24 0 0 0 54.834 108.826C54.834 114.176 56.908 119.015 60.287 122.65L73.471 109.466z" fill="black"></path><path d="M62.694 124.851C66.15 127.539 70.451 129.152 75.161 129.152 80.178 129.152 84.761 127.335 88.32 124.314L75.776 111.77 62.695 124.852z" fill="black"></path><path d="M88.986 93.927C85.351 90.548 80.512 88.474 75.162 88.474 70.145 88.474 65.562 90.291 62.003 93.312L75.776 107.111z" fill="black"></path><path d="M78.106 109.44L90.65 121.984A20.24 20.24 0 0 0 95.488 108.825C95.488 104.115 93.875 99.814 91.187 96.358z" fill="black"></path></svg></g></svg></g></svg></g><defs><mask></mask></defs></svg><rect width="395.52" height="55.98036313356389" fill="black" stroke="none" visibility="hidden"></rect></g></mask></svg><rect width="395.52" height="55.98036313356389" fill="black" stroke="none" visibility="hidden"></rect></g></mask><linearGradient x1="0" x2="1" y1="0.548" y2="0.55" id="671d2a31-270f-4bfd-a444-59c6f81bae37"><stop stop-color="#ff6cab" offset="0"></stop><stop stop-color="#7366ff" offset="1"></stop></linearGradient></svg><rect width="395.52" height="55.98036313356389" fill="none" stroke="none" visibility="hidden"></rect></g></svg></g></svg>