<svg width="52" height="63" viewBox="0 0 52 63" fill="none" xmlns="http://www.w3.org/2000/svg">
<g clip-path="url(#clip0_38_2772)">
<path d="M38.5667 21.2479H36.4579V16.1091C36.4579 9.01762 31.7344 3.26221 25.9142 3.26221C20.0941 3.26221 15.3705 9.01762 15.3705 16.1091V21.2479H13.2618C10.9422 21.2479 9.04431 23.5603 9.04431 26.3866V52.0805C9.04431 54.9068 10.9422 57.2192 13.2618 57.2192H38.5667C40.8863 57.2192 42.7841 54.9068 42.7841 52.0805V26.3866C42.7841 23.5603 40.8863 21.2479 38.5667 21.2479ZM19.588 16.1091C19.588 11.8439 22.4137 8.40097 25.9142 8.40097C29.4147 8.40097 32.2404 11.8439 32.2404 16.1091V21.2479H19.588V16.1091ZM38.5667 52.0805H13.2618V26.3866H38.5667V52.0805ZM25.9142 44.3723C28.2338 44.3723 30.1317 42.0599 30.1317 39.2336C30.1317 36.4072 28.2338 34.0948 25.9142 34.0948C23.5946 34.0948 21.6968 36.4072 21.6968 39.2336C21.6968 42.0599 23.5946 44.3723 25.9142 44.3723Z" fill="white"/>
</g>
<defs>
<clipPath id="clip0_38_2772">
<rect width="50.6098" height="61.6652" fill="white" transform="translate(0.609375 0.692871)"/>
</clipPath>
</defs>
</svg>
